<?xml version="1.0" encoding="utf-8"?>
<!-- Generator: Adobe Illustrator 19.1.1, SVG Export Plug-In . SVG Version: 6.00 Build 0)  -->
<svg version="1.1" xmlns="http://www.w3.org/2000/svg" xmlns:xlink="http://www.w3.org/1999/xlink" x="0px" y="0px"
	 viewBox="0 0 1700 1000" enable-background="new 0 0 1700 1000" xml:space="preserve">
<pattern  x="-1586.169" width="490.25" height="490.25" patternUnits="userSpaceOnUse" id="Motivo_nuevo" viewBox="0 -490.25 490.25 490.25" overflow="visible">
	<g>
		<polygon fill="none" points="0,-490.25 490.25,-490.25 490.25,0 0,0 		"/>
		<path fill="#FFFFFF" d="M180.657-490.25c0.304,0.519,0.681,1.01,0.886,1.565c0.152,0.41,0.223,1.246,0.085,1.303
			c-0.673,0.279-1.429,0.475-2.151,0.46c-0.311-0.007-0.827-0.566-0.871-0.922c-0.098-0.786,0.046-1.602,0.091-2.405
			C179.35-490.25,180.004-490.25,180.657-490.25z"/>
		<path fill="#FFFFFF" d="M490.25-102.707c-0.335-0.131-0.813-0.167-0.974-0.412c-0.318-0.485-0.461-1.085-0.677-1.638
			c0.55-0.134,1.101-0.268,1.65-0.401C490.25-104.342,490.25-103.524,490.25-102.707z"/>
		<path fill="#FFFFFF" d="M0-105.403c0.848-0.12,1.334,0.227,1.283,1.103c-0.043,0.766-0.345,1.33-1.283,1.104
			C0-103.933,0-104.668,0-105.403z"/>
		<path fill="#FFFFFF" d="M122.806-163.377c0.861,0.5,1.727,0.993,2.577,1.511c0.118,0.072,0.214,0.268,0.224,0.413
			c0.068,0.964,0.178,1.932,0.141,2.893c-0.038,0.976-1.816,2.096-2.861,1.89c-1.742-0.342-2.335-1.189-2.084-2.917
			c0.036-0.25-0.088-0.527-0.154-0.788c-0.144-0.568-0.597-1.338-0.381-1.655c0.347-0.51,1.125-0.736,1.742-1.042
			c0.163-0.081,0.4-0.013,0.603-0.013C122.677-163.183,122.742-163.279,122.806-163.377z"/>
		<path fill="#FFFFFF" d="M167.349-262.934c-0.956-0.623-1.721-1.074-2.429-1.602c-0.348-0.258-0.54-0.73-0.893-0.979
			c-0.873-0.615-0.873-1.548-0.346-2.115c0.387-0.416,1.371-0.461,2.048-0.367c0.626,0.088,1.36,0.443,1.754,0.922
			c0.669,0.81,1.22,1.773,1.553,2.764C169.109-264.094,168.063-263.5,167.349-262.934z"/>
		<path fill="#FFFFFF" d="M410.513-22.612c1.121-0.018,2.189,0.022,2.251,1.564c0.007,0.172,0.281,0.372,0.474,0.492
			c0.997,0.623,1.104,1.115,0.436,2.149c-0.414,0.639-1.569,0.878-2.161,0.328c-0.915-0.851-1.772-1.773-2.577-2.729
			c-0.272-0.323-0.544-0.974-0.396-1.239c0.179-0.319,0.797-0.416,1.242-0.553C410.006-22.669,410.268-22.612,410.513-22.612z"/>
		<path fill="#FFFFFF" d="M27.67-87.161c0.292-0.686,0.409-1.738,0.914-1.979c1.074-0.514,1.621,0.482,2.099,1.323
			c0.135,0.239,0.392,0.407,0.583,0.616c0.494,0.542,0.549,1.066-0.07,1.563c-0.185,0.149-0.413,0.284-0.519,0.481
			c-0.264,0.488-0.196,1.402-1.123,1.037c-0.848-0.334-1.797-0.705-1.631-1.955c0.042-0.319,0.006-0.649,0.006-0.976
			C27.842-87.088,27.756-87.125,27.67-87.161z"/>
		<path fill="#FFFFFF" d="M104.574-192.588c1.414-0.172,2.057,0.931,2.737,1.685c0.734,0.816,0.03,2.153-1.077,2.211
			c-1.149,0.06-2.501,0.36-2.563-1.495c-0.002-0.075-0.042-0.171-0.098-0.219c-0.496-0.436-1.15-0.938-0.598-1.599
			C103.29-192.382,104.027-192.405,104.574-192.588z"/>
		<path fill="#FFFFFF" d="M423.967-244.215c1.028-0.854,2.244-0.602,2.81,0.684c0.504,1.146-0.786,1.342-1.208,1.991
			c-0.112,0.174-0.918,0.158-1.143-0.052c-0.697-0.651-1.293-1.421-1.867-2.189c-0.113-0.15,0.042-0.501,0.074-0.76
			C423.03-244.443,423.428-244.347,423.967-244.215z"/>
		<path fill="#FFFFFF" d="M276.11-331.125c-0.345,0.37-0.82,1.166-1.521,1.549c-0.677,0.369-0.959-0.373-0.998-0.968
			c-0.051-0.759,0.079-1.534-0.807-1.979c-0.155-0.078-0.224-0.662-0.099-0.875c0.15-0.259,0.535-0.486,0.845-0.525
			C274.495-334.043,276.075-332.563,276.11-331.125z"/>
		<path fill="#FFFFFF" d="M40.781-440.727c1.05,0.757,1.999,1.38,2.854,2.112c0.152,0.13-0.025,1.015-0.158,1.043
			c-0.597,0.128-1.258,0.185-1.848,0.052c-0.623-0.141-1.242-0.456-1.766-0.831c-0.33-0.235-0.759-0.923-0.662-1.057
			C39.54-439.871,40.088-440.181,40.781-440.727z"/>
		<path fill="#FFFFFF" d="M80.258-430.222c0.479,0.422,1.311,0.804,1.363,1.273c0.111,0.993-0.943,1.761-1.913,1.732
			c-1.048-0.03-1.298-0.671-1.266-1.55C78.482-429.81,79.163-430.023,80.258-430.222z"/>
		<path fill="#FFFFFF" d="M211.65-380.598c0.994-0.689,2.104-1.123,3.329-0.756c0.306,0.092,0.573,0.813,0.57,1.244
			c-0.001,0.254-0.613,0.76-0.871,0.713c-1.018-0.184-2.007-0.542-3.006-0.836C211.665-380.353,211.658-380.476,211.65-380.598z"/>
		<path fill="#FFFFFF" d="M262.654-238.313c0.579,0.546,1.329,1.16,1.284,1.224c-0.456,0.658-1.041,1.227-1.59,1.819
			c-0.485-0.58-0.971-1.16-1.456-1.74C261.409-237.393,261.927-237.775,262.654-238.313z"/>
		<path fill="#FFFFFF" d="M115.78-108.964c0.603,0.625,1.187,0.958,1.296,1.406c0.177,0.731-0.752,1.758-1.382,1.722
			c-1.031-0.06-1.316-0.895-1.239-1.642C114.502-107.929,115.171-108.314,115.78-108.964z"/>
		<path fill="#FFFFFF" d="M6.304-485.897c0.179-0.39,0.313-1.103,0.744-1.464c0.248-0.209,1.069,0.015,1.461,0.289
			c0.569,0.397,1.306,0.941,0.808,1.789c-0.145,0.245-0.839,0.326-1.223,0.234C7.53-485.185,7.02-485.543,6.304-485.897z"/>
		<path fill="#FFFFFF" d="M253.243-241.965c0.325,0,0.713-0.111,0.962,0.027c0.335,0.186,0.778,0.567,0.775,0.862
			c-0.002,0.296-0.448,0.752-0.781,0.844c-0.531,0.146-1.159,0.16-1.691,0.022c-0.417-0.109-0.994-0.477-1.076-0.827
			c-0.169-0.727,0.434-0.945,1.078-0.95c0.244-0.001,0.489,0,0.733,0C253.243-241.979,253.243-241.973,253.243-241.965z"/>
		<path fill="#FFFFFF" d="M246.364-348.585c-0.35,0.389-0.638,1.006-1.061,1.117c-0.825,0.218-1.079-0.485-1.173-1.175
			c-0.038-0.277-0.121-0.617-0.005-0.832c0.263-0.486,0.636-0.912,0.965-1.363c0.316,0.438,0.659,0.859,0.933,1.321
			c0.112,0.191,0.074,0.472,0.104,0.713C246.206-348.73,246.285-348.658,246.364-348.585z"/>
		<path fill="#FFFFFF" d="M49.401-431.242c0.036,0.713-2.193,2.207-2.75,1.919c-0.201-0.104-0.511-0.432-0.486-0.469
			c0.475-0.718,0.903-1.513,1.544-2.05c0.26-0.217,1.009,0.127,1.523,0.262C49.331-431.555,49.371-431.309,49.401-431.242z"/>
		<path fill="#FFFFFF" d="M49.857-426.449c-0.143,1.076-0.214,1.818-0.365,2.546c-0.031,0.148-0.381,0.346-0.551,0.317
			c-0.162-0.026-0.32-0.299-0.411-0.496c-0.212-0.463-0.423-0.933-0.56-1.42c-0.134-0.476-0.314-1.017-0.198-1.455
			c0.058-0.218,0.816-0.471,1.115-0.352C49.338-427.128,49.663-426.635,49.857-426.449z"/>
		<path fill="#FFFFFF" d="M164.088-260.299c-0.166,0.142-0.744,0.74-0.824,0.68c-0.667-0.505-1.242-1.131-1.846-1.72
			c0.405-0.291,0.791-0.79,1.219-0.829C163.625-262.259,164.117-261.652,164.088-260.299z"/>
		<path fill="#FFFFFF" d="M136.045-395.851c-1.228-0.041-1.991-0.792-1.88-1.681c0.042-0.336,0.457-0.625,0.702-0.936
			c0.643,0.585,1.303,1.154,1.886,1.793C136.788-396.635,136.202-396.029,136.045-395.851z"/>
		<path fill="#FFFFFF" d="M285.331-195.644c0.747,0.662,1.444,1.218,2.041,1.865c0.107,0.117-0.114,0.795-0.327,0.889
			c-0.292,0.129-0.766,0.035-1.08-0.124c-0.401-0.204-0.746-0.544-1.068-0.872c-0.23-0.235-0.585-0.609-0.523-0.81
			C284.469-195.005,284.873-195.218,285.331-195.644z"/>
		<path fill="#FFFFFF" d="M18.756-483.176c-0.089,2.184-0.916,2.897-2.259,2.279c-0.645-0.297-0.947-0.881-0.314-1.297
			C16.9-482.664,17.815-482.834,18.756-483.176z"/>
		<path fill="#FFFFFF" d="M408.542-14.519c-1.066-0.225-1.647-0.606-1.508-1.46c0.071-0.438,0.564-0.808,0.865-1.209
			c0.576,0.508,1.152,1.015,1.729,1.523C409.266-15.283,408.903-14.901,408.542-14.519z"/>
		<path fill="#FFFFFF" d="M397.072-210.63c0.172,0.177,0.645,0.459,0.787,0.859c0.192,0.538-1.045,1.581-1.887,1.565
			c-0.271-0.006-0.722-0.385-0.768-0.649C395.081-209.564,396.052-210.589,397.072-210.63z"/>
		<path fill="#FFFFFF" d="M115.831-226.777c0.473,0.56,1.009,1.079,1.389,1.695c0.176,0.285,0.144,0.799,0.009,1.129
			c-0.057,0.142-0.757,0.231-0.919,0.08c-0.459-0.425-0.899-0.942-1.132-1.512c-0.146-0.356,0.093-0.871,0.159-1.315
			C115.5-226.726,115.665-226.752,115.831-226.777z"/>
		<path fill="#FFFFFF" d="M459.269-133.65c-0.728-0.6-1.238-1.021-1.749-1.442c0.36-0.315,0.722-0.891,1.082-0.891
			c0.654,0.001,1.62-0.018,1.622,1.009C460.224-134.614,459.724-134.254,459.269-133.65z"/>
		<path fill="#FFFFFF" d="M117.318-285.939c0.567,0.629,1.165,0.988,1.207,1.403c0.089,0.881-0.683,0.93-1.358,0.928
			c-0.676-0.002-1.334-0.213-1.167-0.988C116.092-285.021,116.698-285.336,117.318-285.939z"/>
		<path fill="#FFFFFF" d="M203.846-377.535c0.709,0.83,1.205,1.35,1.582,1.945c0.039,0.063-0.863,0.88-0.934,0.826
			c-0.526-0.398-1.018-0.888-1.369-1.445C203.029-376.361,203.453-376.84,203.846-377.535z"/>
		<path fill="#FFFFFF" d="M385.129-331.648c-0.707,0.618-1.103,0.965-1.501,1.311c-0.313-0.435-0.845-0.857-0.871-1.31
			c-0.023-0.381,0.542-0.797,0.847-1.197C384.009-332.525,384.414-332.208,385.129-331.648z"/>
		<path fill="#FFFFFF" d="M383.805-301.449c-0.46-0.57-0.746-0.926-1.032-1.281c0.385-0.309,0.782-0.875,1.152-0.857
			c0.408,0.019,0.792,0.573,1.186,0.895C384.743-302.342,384.375-301.992,383.805-301.449z"/>
		<path fill="#FFFFFF" d="M381.859-151.628c-0.579,0.538-0.939,0.871-1.298,1.205c-0.287-0.411-0.8-0.822-0.799-1.232
			c0.001-0.4,0.526-0.801,0.821-1.2C380.938-152.516,381.29-152.176,381.859-151.628z"/>
		<path fill="#FFFFFF" d="M287.8-309.379c-0.549,0.543-0.878,0.868-1.207,1.193c-0.289-0.406-0.778-0.799-0.807-1.224
			c-0.024-0.355,0.489-0.745,0.765-1.12C286.906-310.202,287.262-309.875,287.8-309.379z"/>
		<path fill="#FFFFFF" d="M362.642-352.016c-0.573,0.494-0.929,0.801-1.285,1.108c-0.289-0.46-0.697-0.895-0.809-1.396
			c-0.045-0.198,0.621-0.811,0.869-0.761C361.803-352.986,362.107-352.504,362.642-352.016z"/>
		<path fill="#FFFFFF" d="M73.533-99.747c-0.55,0.45-0.946,1.006-1.239,0.955c-0.355-0.062-0.901-0.669-0.861-0.974
			c0.056-0.431,0.574-0.801,0.895-1.196C72.661-100.627,72.994-100.291,73.533-99.747z"/>
		<path fill="#FFFFFF" d="M361.338-469.227c-0.579-0.58-0.933-0.935-1.286-1.289c0.36-0.304,0.747-0.872,1.076-0.841
			c0.398,0.038,0.848,0.531,1.067,0.939C362.276-470.268,361.765-469.799,361.338-469.227z"/>
		<path fill="#FFFFFF" d="M123.262-190.374c-0.48-0.516-0.794-0.853-1.108-1.189c0.383-0.273,0.769-0.764,1.147-0.759
			c0.383,0.005,0.759,0.502,1.138,0.783C124.108-191.211,123.777-190.883,123.262-190.374z"/>
		<path fill="#FFFFFF" d="M222.621-414.696c-0.482-0.564-0.785-0.92-1.088-1.275c0.413-0.288,0.813-0.768,1.244-0.799
			c0.3-0.021,0.9,0.577,0.897,0.894C223.672-415.541,223.112-415.211,222.621-414.696z"/>
		<path fill="#FFFFFF" d="M177.556-392.487c-0.41-0.565-0.661-0.911-0.911-1.257c0.418-0.277,0.836-0.766,1.256-0.769
			c0.348-0.002,0.699,0.567,1.049,0.884C178.555-393.306,178.159-392.982,177.556-392.487z"/>
		<path fill="#FFFFFF" d="M111.823-124.538c-0.457-0.624-0.928-0.988-0.924-1.348c0.003-0.287,0.611-0.82,0.902-0.789
			c0.401,0.043,0.756,0.515,1.13,0.803C112.636-125.517,112.34-125.16,111.823-124.538z"/>
		<path fill="#FFFFFF" d="M226.35-323.859c-0.482,0.58-0.965,1.161-1.447,1.741c-0.274-0.235-0.775-0.46-0.787-0.708
			c-0.063-1.346,1.213-0.925,1.836-1.391C226.084-324.098,226.217-323.978,226.35-323.859z"/>
		<path fill="#FFFFFF" d="M337.273-482.493c-0.403-0.546-0.908-0.95-0.842-1.208c0.086-0.331,0.654-0.783,0.968-0.75
			c0.401,0.043,0.757,0.52,1.132,0.809C338.182-483.324,337.833-483.005,337.273-482.493z"/>
		<path fill="#FFFFFF" d="M368.735-240.026c-0.605,0.514-0.938,1.008-1.31,1.04c-0.267,0.023-0.843-0.594-0.817-0.887
			c0.031-0.374,0.472-0.871,0.846-1C367.688-240.953,368.121-240.454,368.735-240.026z"/>
		<path fill="#FFFFFF" d="M224.033-473.25c-0.508,0.512-0.832,0.839-1.157,1.166c-0.262-0.348-0.744-0.706-0.728-1.04
			c0.02-0.386,0.479-0.75,0.746-1.124C223.211-473.97,223.528-473.691,224.033-473.25z"/>
		<path fill="#FFFFFF" d="M230.19-35.191c0.225,0.407,0.634,0.822,0.617,1.219c-0.015,0.33-0.53,0.638-0.825,0.956
			c-0.297-0.308-0.813-0.599-0.837-0.927c-0.03-0.397,0.355-0.825,0.56-1.24C229.867-35.187,230.028-35.188,230.19-35.191z"/>
		<path fill="#FFFFFF" d="M481.976-294.908c-0.596,0.513-0.916,0.992-1.297,1.047c-0.262,0.037-0.607-0.518-0.915-0.808
			c0.354-0.304,0.671-0.697,1.08-0.87C481.025-295.616,481.395-295.248,481.976-294.908z"/>
		<path fill="#FFFFFF" d="M210.063-109.647c-0.672,0.4-1.082,0.837-1.376,0.769c-0.33-0.075-0.783-0.626-0.76-0.937
			c0.025-0.321,0.547-0.819,0.875-0.838C209.111-110.672,209.449-110.166,210.063-109.647z"/>
		<path fill="#FFFFFF" d="M255.035-405.848c-0.222-0.352-0.646-0.725-0.611-1.049c0.039-0.348,0.51-0.648,0.791-0.971
			c0.301,0.308,0.792,0.585,0.847,0.932c0.051,0.32-0.364,0.716-0.573,1.078C255.337-405.853,255.186-405.851,255.035-405.848z"/>
		<path fill="#FFFFFF" d="M225.824-245.811c-0.447-0.666-0.908-1.057-0.854-1.352c0.062-0.336,0.584-0.811,0.906-0.811
			c0.301-0.002,0.802,0.518,0.843,0.854C226.758-246.817,226.291-246.453,225.824-245.811z"/>
		<path fill="#FFFFFF" d="M239.98-436.855c-0.378-0.691-0.758-1.076-0.721-1.415c0.031-0.291,0.539-0.53,0.836-0.792
			c0.281,0.318,0.73,0.611,0.789,0.967C240.928-437.832,240.464-437.484,239.98-436.855z"/>
		<path fill="#FFFFFF" d="M468.53-226.237c0.421,0.663,0.828,1.023,0.811,1.363c-0.014,0.291-0.583,0.829-0.781,0.777
			c-0.355-0.094-0.776-0.51-0.858-0.863C467.642-225.216,468.086-225.589,468.53-226.237z"/>
		<path fill="#FFFFFF" d="M193.822-249.078c-0.634,0.368-1.001,0.755-1.295,0.706c-0.316-0.053-0.564-0.515-0.843-0.798
			c0.318-0.281,0.608-0.726,0.965-0.788C192.904-250.003,193.248-249.533,193.822-249.078z"/>
		<path fill="#FFFFFF" d="M422.334-224.769c-0.702,0.351-1.099,0.715-1.439,0.667c-0.286-0.04-0.768-0.655-0.697-0.844
			c0.127-0.343,0.578-0.726,0.934-0.77C421.398-225.747,421.727-225.272,422.334-224.769z"/>
		<path fill="#FFFFFF" d="M197.625-361.176c-0.351,0.223-0.707,0.623-1.049,0.611c-0.285-0.009-0.77-0.498-0.774-0.78
			c-0.004-0.3,0.434-0.821,0.718-0.851c0.341-0.034,0.726,0.35,1.091,0.553C197.615-361.486,197.62-361.332,197.625-361.176z"/>
		<path fill="#FFFFFF" d="M146.33-155.113c-0.604,0.398-0.982,0.833-1.238,0.77c-0.355-0.087-0.618-0.549-0.92-0.85
			c0.325-0.276,0.622-0.715,0.983-0.774C145.415-156.011,145.759-155.551,146.33-155.113z"/>
		<path fill="#FFFFFF" d="M109.698-187.323c-0.35,0.23-0.703,0.643-1.047,0.635c-0.29-0.006-0.774-0.487-0.793-0.781
			c-0.018-0.283,0.427-0.807,0.715-0.843c0.341-0.042,0.733,0.326,1.102,0.517C109.683-187.639,109.69-187.48,109.698-187.323z"/>
		<path fill="#FFFFFF" d="M201.967-116.637c-0.682,0.375-1.092,0.778-1.344,0.696c-0.342-0.112-0.719-0.569-0.775-0.927
			c-0.032-0.204,0.554-0.719,0.843-0.704C201.03-117.556,201.35-117.117,201.967-116.637z"/>
		<path fill="#FFFFFF" d="M247.479-113.649c-0.692,0.394-1.072,0.78-1.416,0.751c-0.285-0.024-0.789-0.615-0.73-0.82
			c0.1-0.343,0.543-0.746,0.895-0.805C246.493-114.568,246.843-114.117,247.479-113.649z"/>
		<path fill="#FFFFFF" d="M372.832-110.747c-0.693,0.453-1.046,0.858-1.392,0.853c-0.275-0.004-0.542-0.512-0.813-0.796
			c0.313-0.287,0.59-0.712,0.955-0.813C371.817-111.569,372.185-111.16,372.832-110.747z"/>
		<path fill="#FFFFFF" d="M36.125-104.607c-0.596,0.405-0.961,0.843-1.23,0.79c-0.357-0.069-0.638-0.523-0.952-0.812
			c0.32-0.279,0.613-0.722,0.971-0.783C35.186-105.458,35.54-105.019,36.125-104.607z"/>
		<path fill="#FFFFFF" d="M289.611-33.606c-0.42-0.578-0.87-0.935-0.82-1.195c0.068-0.356,0.517-0.642,0.802-0.957
			c0.292,0.311,0.745,0.587,0.82,0.944C290.468-34.556,290.021-34.191,289.611-33.606z"/>
		<path fill="#FFFFFF" d="M318.214-345.087c-0.683,0.38-1.092,0.786-1.344,0.704c-0.345-0.111-0.571-0.592-0.849-0.914
			c0.303-0.26,0.613-0.733,0.906-0.723C317.268-346.006,317.591-345.566,318.214-345.087z"/>
		<path fill="#FFFFFF" d="M154.151-343.428c0.409,0.578,0.852,0.938,0.799,1.195c-0.075,0.355-0.521,0.634-0.81,0.945
			c-0.289-0.313-0.741-0.592-0.814-0.949C153.273-342.49,153.729-342.85,154.151-343.428z"/>
		<path fill="#FFFFFF" d="M47.958-319.599c-0.4-0.691-0.791-1.067-0.759-1.404c0.028-0.294,0.531-0.544,0.824-0.814
			c0.284,0.315,0.729,0.6,0.797,0.958C48.87-320.599,48.423-320.243,47.958-319.599z"/>
		<path fill="#FFFFFF" d="M114.643-222.146c0.434,0.603,0.856,0.938,0.868,1.286c0.009,0.265-0.505,0.547-0.787,0.821
			c-0.285-0.321-0.681-0.605-0.811-0.98C113.847-221.213,114.252-221.569,114.643-222.146z"/>
		<path fill="#FFFFFF" d="M412.847-353.043c-0.376-0.615-0.801-1.017-0.725-1.258c0.109-0.342,0.588-0.567,0.908-0.843
			c0.244,0.308,0.672,0.61,0.682,0.926C413.722-353.922,413.291-353.611,412.847-353.043z"/>
		<path fill="#FFFFFF" d="M423.049-147.77c-0.438-0.658-0.855-1.011-0.842-1.349c0.01-0.295,0.503-0.573,0.782-0.858
			c0.301,0.3,0.76,0.562,0.849,0.914C423.901-148.807,423.474-148.428,423.049-147.77z"/>
		<path fill="#FFFFFF" d="M140.004-86.165c-0.364,0.203-0.745,0.587-1.087,0.555c-0.289-0.027-0.743-0.538-0.738-0.83
			c0.004-0.287,0.481-0.78,0.771-0.796c0.343-0.018,0.707,0.38,1.063,0.597C140.009-86.481,140.007-86.323,140.004-86.165z"/>
		<path fill="#FFFFFF" d="M363.406-38.745c-0.344,0.238-0.688,0.657-1.032,0.656c-0.286,0-0.779-0.476-0.8-0.771
			c-0.021-0.286,0.411-0.819,0.697-0.858c0.34-0.047,0.735,0.318,1.107,0.505C363.388-39.057,363.397-38.9,363.406-38.745z"/>
		<path fill="#FFFFFF" d="M481.961-304.648c-0.685,0.377-1.099,0.782-1.347,0.699c-0.345-0.117-0.567-0.6-0.842-0.926
			c0.306-0.256,0.62-0.727,0.913-0.713C481.024-305.572,481.344-305.131,481.961-304.648z"/>
		<path fill="#FFFFFF" d="M484.62-208.487c-0.37-0.608-0.76-0.965-0.719-1.26c0.045-0.311,0.501-0.563,0.777-0.842
			c0.288,0.307,0.743,0.583,0.808,0.932C485.534-209.404,485.064-209.056,484.62-208.487z"/>
		<path fill="#FFFFFF" d="M284.544-183.224c-0.411-0.589-0.86-0.964-0.798-1.208c0.088-0.345,0.555-0.594,0.859-0.884
			c0.261,0.291,0.704,0.566,0.731,0.879C285.363-184.143,284.951-183.81,284.544-183.224z"/>
		<path fill="#FFFFFF" d="M246.137-432.895c0.588,0.692,1.058,1.247,1.528,1.801c-0.173,0.127-0.46,0.395-0.503,0.359
			c-0.541-0.436-1.058-0.904-1.539-1.405C245.59-432.176,245.881-432.524,246.137-432.895z"/>
		<path fill="#FFFFFF" d="M73.499-440.874c-0.313,0.138-0.67,0.439-0.931,0.371c-0.349-0.09-0.624-0.466-0.931-0.72
			c0.268-0.235,0.556-0.682,0.8-0.66c0.385,0.035,0.74,0.387,1.108,0.603C73.531-441.145,73.515-441.009,73.499-440.874z"/>
		<path fill="#FFFFFF" d="M345.292-253.451c0.366,0.642,0.755,1.018,0.697,1.305c-0.063,0.305-0.56,0.742-0.841,0.723
			c-0.278-0.019-0.712-0.522-0.729-0.833C344.403-252.549,344.84-252.867,345.292-253.451z"/>
		<path fill="#FFFFFF" d="M83.476-417.195c0.374,0.611,0.801,1.016,0.722,1.25c-0.114,0.34-0.592,0.558-0.915,0.828
			c-0.243-0.307-0.668-0.608-0.676-0.922C82.598-416.332,83.031-416.637,83.476-417.195z"/>
		<path fill="#FFFFFF" d="M476.855-279.386c-0.67,0.374-1.061,0.767-1.329,0.697c-0.303-0.079-0.642-0.561-0.68-0.899
			c-0.023-0.205,0.503-0.67,0.768-0.658C475.934-280.233,476.237-279.84,476.855-279.386z"/>
		<path fill="#FFFFFF" d="M214.052-387.592c-0.642,0.383-1.008,0.777-1.295,0.727c-0.309-0.057-0.763-0.542-0.747-0.818
			c0.016-0.284,0.502-0.728,0.815-0.757C213.115-388.467,213.445-388.036,214.052-387.592z"/>
		<path fill="#FFFFFF" d="M53.062-14.393c-0.406-0.654-0.81-1.019-0.759-1.3c0.055-0.303,0.511-0.675,0.842-0.733
			c0.199-0.035,0.689,0.468,0.695,0.735C53.847-15.369,53.476-15.041,53.062-14.393z"/>
		<path fill="#FFFFFF" d="M293.905-164.266c-0.65,0.411-1.012,0.817-1.292,0.768c-0.304-0.054-0.676-0.506-0.738-0.837
			c-0.036-0.196,0.462-0.688,0.73-0.695C292.925-165.04,293.255-164.673,293.905-164.266z"/>
		<path fill="#FFFFFF" d="M41.653-455.156c-0.128-0.375-0.409-0.782-0.342-1.119c0.063-0.322,0.486-0.789,0.758-0.794
			c0.297-0.005,0.602,0.448,0.904,0.7c-0.23,0.275-0.461,0.551-0.692,0.825C42.072-455.414,41.862-455.285,41.653-455.156z"/>
		<path fill="#FFFFFF" d="M412.003-370.411c-0.512,0.339-0.832,0.716-1.103,0.683c-0.286-0.033-0.524-0.459-0.783-0.715
			c0.284-0.268,0.537-0.686,0.863-0.754C411.201-371.244,411.525-370.799,412.003-370.411z"/>
		<path fill="#FFFFFF" d="M438.341-4.482c-0.572,0.337-0.91,0.692-1.223,0.671c-0.259-0.018-0.487-0.479-0.729-0.743
			c0.285-0.261,0.544-0.671,0.867-0.731C437.486-5.329,437.805-4.901,438.341-4.482z"/>
		<path fill="#FFFFFF" d="M365.484-261.327c-0.477,0.366-0.805,0.794-1.024,0.745c-0.319-0.072-0.559-0.488-0.834-0.759
			c0.262-0.244,0.508-0.657,0.789-0.683C364.685-262.049,364.991-261.67,365.484-261.327z"/>
		<path fill="#FFFFFF" d="M243.049-467.685c-0.235-0.488-0.483-0.854-0.427-0.909c0.475-0.466,1.003-0.878,1.532-1.282
			c0.017-0.013,0.362,0.336,0.344,0.361C244.086-468.958,243.645-468.422,243.049-467.685z"/>
		<path fill="#FFFFFF" d="M239.13-397.704c-0.5,0.329-0.857,0.73-1.07,0.663c-0.312-0.096-0.52-0.527-0.771-0.815
			c0.276-0.225,0.55-0.617,0.831-0.622C238.388-398.481,238.663-398.083,239.13-397.704z"/>
		<path fill="#FFFFFF" d="M43.038-423.131c0.32,0.549,0.68,0.891,0.631,1.157c-0.05,0.278-0.496,0.483-0.77,0.721
			c-0.235-0.275-0.644-0.544-0.654-0.827C42.236-422.352,42.642-422.637,43.038-423.131z"/>
		<path fill="#FFFFFF" d="M127.791-355.935c-0.41,0.35-0.684,0.582-0.957,0.814c-0.218-0.336-0.58-0.662-0.603-1.011
			c-0.016-0.226,0.462-0.486,0.718-0.731C127.19-356.597,127.432-356.33,127.791-355.935z"/>
		<path fill="#FFFFFF" d="M51.005-88.38c-0.336-0.52-0.705-0.84-0.667-1.1c0.04-0.274,0.47-0.491,0.73-0.732
			c0.241,0.26,0.652,0.507,0.674,0.785C51.764-89.166,51.374-88.872,51.005-88.38z"/>
		<path fill="#FFFFFF" d="M322.919-466.225c0.338,0.605,0.645,0.904,0.613,1.162c-0.04,0.326-0.357,0.617-0.555,0.924
			c-0.209-0.252-0.569-0.493-0.588-0.76C322.366-465.217,322.634-465.557,322.919-466.225z"/>
		<path fill="#FFFFFF" d="M409.947-276.387c-0.379-0.512-0.733-0.783-0.751-1.076c-0.015-0.235,0.414-0.721,0.583-0.695
			c0.307,0.049,0.736,0.357,0.796,0.628C410.63-277.279,410.27-276.935,409.947-276.387z"/>
		<path fill="#FFFFFF" d="M78.396-218.671c-0.371-0.541-0.748-0.85-0.721-1.116c0.028-0.276,0.449-0.513,0.699-0.767
			c0.231,0.231,0.638,0.455,0.648,0.695C79.033-219.558,78.718-219.244,78.396-218.671z"/>
		<path fill="#FFFFFF" d="M80.338-204.679c0.339,0.442,0.732,0.749,0.683,0.941c-0.076,0.297-0.456,0.516-0.707,0.767
			c-0.219-0.241-0.59-0.47-0.614-0.73C79.679-203.945,80.022-204.223,80.338-204.679z"/>
		<path fill="#FFFFFF" d="M238.084-442.253c0.316,0.501,0.648,0.8,0.641,1.09c-0.006,0.226-0.512,0.66-0.664,0.609
			c-0.293-0.099-0.627-0.446-0.688-0.743C237.331-441.501,237.723-441.793,238.084-442.253z"/>
		<path fill="#FFFFFF" d="M370.484-327.032c-0.465,0.362-0.761,0.756-0.965,0.713c-0.299-0.063-0.642-0.401-0.744-0.698
			c-0.05-0.147,0.392-0.654,0.617-0.658C369.685-327.682,369.984-327.349,370.484-327.032z"/>
		<path fill="#FFFFFF" d="M90.469-236.551c0.365-0.371,0.73-0.741,1.096-1.112c0.178,0.187,0.524,0.521,0.51,0.539
			c-0.341,0.387-0.722,0.74-1.095,1.099C90.809-236.2,90.639-236.376,90.469-236.551z"/>
		<path fill="#FFFFFF" d="M221.221-486.795c-0.341-0.314-0.682-0.63-1.023-0.945c0.233-0.217,0.466-0.433,0.699-0.649
			c0.291,0.371,0.582,0.741,0.873,1.112C221.586-487.116,221.404-486.955,221.221-486.795z"/>
		<path fill="#FFFFFF" d="M436.136-154.184c-0.404,0.341-0.684,0.745-0.887,0.709c-0.299-0.052-0.543-0.418-0.811-0.65
			c0.252-0.25,0.471-0.631,0.766-0.703C435.404-154.878,435.711-154.495,436.136-154.184z"/>
		<path fill="#FFFFFF" d="M235.1-215.726c-0.584,0.311-0.908,0.622-1.197,0.593c-0.227-0.022-0.582-0.478-0.566-0.72
			c0.014-0.236,0.436-0.635,0.662-0.624C234.29-216.464,234.566-216.113,235.1-215.726z"/>
		<path fill="#FFFFFF" d="M325.541-183.378c-0.61,0.241-0.938,0.493-1.211,0.443c-0.257-0.047-0.456-0.411-0.682-0.635
			c0.295-0.152,0.585-0.408,0.887-0.424C324.769-184.005,325.018-183.715,325.541-183.378z"/>
		<path fill="#FFFFFF" d="M160.244-305.761c0.316,0.459,0.659,0.739,0.636,0.983c-0.024,0.26-0.398,0.485-0.618,0.727
			c-0.25-0.253-0.629-0.474-0.703-0.77C159.511-305.015,159.904-305.318,160.244-305.761z"/>
		<path fill="#FFFFFF" d="M244.109-475.578c-0.457,0.322-0.775,0.703-0.969,0.647c-0.293-0.084-0.499-0.473-0.742-0.733
			c0.251-0.211,0.493-0.573,0.755-0.588C243.398-476.268,243.664-475.912,244.109-475.578z"/>
		<path fill="#FFFFFF" d="M61.142-19.691c0.332,0.437,0.691,0.702,0.679,0.949c-0.012,0.26-0.379,0.503-0.592,0.753
			c-0.261-0.243-0.651-0.448-0.736-0.741C60.438-18.924,60.823-19.244,61.142-19.691z"/>
		<path fill="#FFFFFF" d="M231.904-481.65c0.365,0.43,0.775,0.715,0.736,0.91c-0.059,0.299-0.43,0.537-0.668,0.801
			c-0.232-0.229-0.617-0.438-0.654-0.693C231.283-480.879,231.611-481.176,231.904-481.65z"/>
		<path fill="#FFFFFF" d="M37.885-26.853c-0.42,0.358-0.709,0.772-0.905,0.732c-0.299-0.062-0.534-0.437-0.795-0.679
			c0.231-0.233,0.441-0.623,0.699-0.657C37.129-27.487,37.423-27.149,37.885-26.853z"/>
		<path fill="#FFFFFF" d="M444.33-189.509c0.287,0.466,0.648,0.807,0.581,0.998c-0.101,0.286-0.501,0.467-0.774,0.692
			c-0.196-0.262-0.549-0.525-0.546-0.785C443.595-188.85,443.969-189.091,444.33-189.509z"/>
		<path fill="#FFFFFF" d="M256.17-283.552c-0.291-0.495-0.614-0.801-0.57-1.038c0.048-0.251,0.443-0.438,0.687-0.652
			c0.214,0.246,0.584,0.484,0.596,0.739C256.895-284.262,256.529-284.004,256.17-283.552z"/>
		<path fill="#FFFFFF" d="M219.848-75.366c-0.293-0.436-0.631-0.72-0.6-0.954c0.033-0.248,0.488-0.67,0.637-0.623
			c0.294,0.091,0.629,0.422,0.701,0.714C220.629-76.055,220.205-75.765,219.848-75.366z"/>
		<path fill="#FFFFFF" d="M474.503-55.907c-0.365,0.234-0.656,0.523-0.758,0.467c-0.306-0.167-0.537-0.47-0.798-0.72
			c0.227-0.186,0.503-0.558,0.67-0.514C473.901-56.6,474.117-56.264,474.503-55.907z"/>
		<path fill="#FFFFFF" d="M47.287-50.263c-0.365,0.678-0.521,1.146-0.83,1.466c-0.159,0.165-0.592,0.066-0.9,0.087
			c0.062-0.277,0.032-0.673,0.205-0.808C46.118-49.796,46.582-49.935,47.287-50.263z"/>
		<path fill="#FFFFFF" d="M24.705-46.036c-0.286-0.452-0.614-0.74-0.581-0.979c0.035-0.253,0.413-0.458,0.641-0.684
			c0.24,0.256,0.609,0.484,0.674,0.778C25.48-46.734,25.066-46.449,24.705-46.036z"/>
		<path fill="#FFFFFF" d="M158.174-194.658c-0.449,0.359-0.709,0.727-0.949,0.716c-0.254-0.014-0.666-0.378-0.682-0.61
			c-0.015-0.228,0.355-0.635,0.608-0.681C157.388-195.275,157.691-194.948,158.174-194.658z"/>
		<path fill="#FFFFFF" d="M398.748-1.479c-0.498,0.308-0.768,0.603-1.036,0.599c-0.207-0.003-0.604-0.425-0.568-0.579
			c0.063-0.273,0.369-0.641,0.617-0.678C397.986-2.17,398.27-1.817,398.748-1.479z"/>
		<path fill="#FFFFFF" d="M176.607-486.566c0.309,0.422,0.492,0.674,0.678,0.926c-0.268,0.18-0.527,0.479-0.806,0.498
			c-0.193,0.014-0.604-0.392-0.577-0.551C175.947-485.958,176.268-486.175,176.607-486.566z"/>
		<path fill="#FFFFFF" d="M56.085-287.559c-0.5,0.313-0.802,0.648-1.028,0.604c-0.247-0.05-0.532-0.428-0.59-0.707
			c-0.03-0.145,0.396-0.547,0.609-0.541C55.342-288.195,55.599-287.889,56.085-287.559z"/>
		<path fill="#FFFFFF" d="M25.755-336.053c-0.508,0.297-0.821,0.625-1.048,0.574c-0.245-0.056-0.517-0.447-0.566-0.729
			c-0.025-0.147,0.414-0.537,0.624-0.523C25.032-336.713,25.28-336.398,25.755-336.053z"/>
		<path fill="#FFFFFF" d="M2.454-212.764c0.355,0.47,0.674,0.712,0.696,0.978c0.018,0.211-0.364,0.658-0.51,0.635
			c-0.284-0.046-0.681-0.308-0.743-0.554C1.841-211.929,2.165-212.249,2.454-212.764z"/>
		<path fill="#FFFFFF" d="M484.653-212.861c-0.453,0.359-0.716,0.726-0.946,0.706c-0.247-0.021-0.574-0.373-0.65-0.642
			c-0.043-0.153,0.334-0.594,0.542-0.607C483.864-213.423,484.149-213.14,484.653-212.861z"/>
		<path fill="#FFFFFF" d="M394.665-452.385c-0.295-0.473-0.627-0.771-0.585-1.002c0.046-0.248,0.448-0.607,0.681-0.597
			c0.226,0.011,0.589,0.421,0.602,0.671C395.374-453.076,395.011-452.819,394.665-452.385z"/>
		<path fill="#FFFFFF" d="M294.643-75.328c-0.489,0.335-0.776,0.683-1.005,0.647c-0.249-0.04-0.549-0.407-0.616-0.684
			c-0.035-0.146,0.373-0.564,0.583-0.566C293.872-75.934,294.143-75.639,294.643-75.328z"/>
		<path fill="#FFFFFF" d="M52.005-475.432c-0.286-0.535-0.584-0.84-0.544-1.089c0.041-0.256,0.414-0.458,0.641-0.683
			c0.199,0.248,0.543,0.492,0.554,0.748C52.667-476.199,52.342-475.93,52.005-475.432z"/>
		<path fill="#FFFFFF" d="M456.295-342.1c0.357,0.404,0.723,0.646,0.696,0.829c-0.041,0.274-0.315,0.601-0.575,0.72
			c-0.122,0.057-0.612-0.304-0.63-0.503C455.763-341.317,456.038-341.608,456.295-342.1z"/>
		<path fill="#FFFFFF" d="M436.101-308.757c-0.477,0.277-0.753,0.563-1.016,0.552c-0.2-0.01-0.582-0.478-0.532-0.6
			c0.107-0.265,0.415-0.556,0.687-0.609C435.42-309.449,435.679-309.096,436.101-308.757z"/>
		<path fill="#FFFFFF" d="M214.73-397.716c-0.451,0.29-0.737,0.608-0.916,0.558c-0.262-0.077-0.446-0.418-0.664-0.645
			c0.207-0.195,0.424-0.556,0.621-0.546C214.033-398.336,214.281-398.033,214.73-397.716z"/>
		<path fill="#FFFFFF" d="M388.675-282.559c-0.32-0.477-0.66-0.762-0.627-0.992c0.035-0.242,0.402-0.538,0.673-0.602
			c0.145-0.034,0.557,0.371,0.556,0.576C389.274-283.31,388.981-283.045,388.675-282.559z"/>
		<path fill="#FFFFFF" d="M381.474-217.894c-0.286-0.492-0.613-0.808-0.556-1.022c0.063-0.24,0.463-0.497,0.742-0.53
			c0.156-0.019,0.532,0.416,0.511,0.615C382.143-218.567,381.823-218.335,381.474-217.894z"/>
	</g>
</pattern>
<pattern  x="-1586.169" width="490.25" height="490.25" patternUnits="userSpaceOnUse" id="Motivo_nuevo_2" viewBox="0 -490.25 490.25 490.25" overflow="visible">
	<g>
		<polygon fill="none" points="0,-490.25 490.25,-490.25 490.25,0 0,0 		"/>
		<path d="M180.657-490.25c0.304,0.519,0.681,1.01,0.886,1.565c0.152,0.41,0.223,1.246,0.085,1.303
			c-0.673,0.279-1.429,0.475-2.151,0.46c-0.311-0.007-0.827-0.566-0.871-0.922c-0.098-0.786,0.046-1.602,0.091-2.405
			C179.35-490.25,180.004-490.25,180.657-490.25z"/>
		<path d="M490.25-102.707c-0.335-0.131-0.813-0.167-0.974-0.412c-0.318-0.485-0.461-1.085-0.677-1.638
			c0.55-0.134,1.101-0.268,1.65-0.401C490.25-104.342,490.25-103.524,490.25-102.707z"/>
		<path d="M0-105.403c0.848-0.12,1.334,0.227,1.283,1.103c-0.043,0.766-0.346,1.33-1.283,1.104C0-103.933,0-104.668,0-105.403z"/>
		<path d="M122.806-163.377c0.86,0.5,1.727,0.993,2.577,1.511c0.117,0.072,0.214,0.268,0.225,0.413
			c0.067,0.964,0.178,1.932,0.141,2.893c-0.038,0.976-1.816,2.096-2.861,1.89c-1.742-0.342-2.334-1.189-2.083-2.917
			c0.036-0.25-0.088-0.527-0.154-0.788c-0.144-0.568-0.597-1.338-0.381-1.655c0.347-0.51,1.126-0.736,1.741-1.042
			c0.164-0.081,0.4-0.013,0.604-0.013C122.678-163.183,122.742-163.279,122.806-163.377z"/>
		<path d="M167.349-262.934c-0.956-0.623-1.721-1.074-2.429-1.602c-0.348-0.258-0.54-0.73-0.893-0.979
			c-0.873-0.615-0.873-1.548-0.346-2.115c0.387-0.416,1.371-0.461,2.048-0.367c0.626,0.088,1.36,0.443,1.754,0.922
			c0.669,0.81,1.22,1.773,1.553,2.764C169.109-264.094,168.063-263.5,167.349-262.934z"/>
		<path d="M410.513-22.612c1.121-0.018,2.189,0.022,2.251,1.564c0.007,0.172,0.281,0.372,0.474,0.492
			c0.997,0.623,1.104,1.115,0.436,2.149c-0.414,0.639-1.569,0.878-2.161,0.328c-0.915-0.851-1.772-1.773-2.577-2.729
			c-0.272-0.323-0.544-0.974-0.396-1.239c0.179-0.319,0.797-0.416,1.242-0.553C410.006-22.669,410.268-22.612,410.513-22.612z"/>
		<path d="M27.67-87.161c0.293-0.686,0.409-1.738,0.914-1.979c1.074-0.514,1.621,0.482,2.099,1.323
			c0.136,0.239,0.392,0.407,0.583,0.616c0.494,0.542,0.549,1.066-0.07,1.563c-0.185,0.149-0.414,0.284-0.519,0.481
			c-0.264,0.488-0.197,1.402-1.123,1.037c-0.848-0.334-1.797-0.705-1.631-1.955c0.042-0.319,0.006-0.649,0.006-0.976
			C27.842-87.088,27.756-87.125,27.67-87.161z"/>
		<path d="M104.574-192.588c1.413-0.172,2.057,0.931,2.736,1.685c0.734,0.816,0.029,2.153-1.076,2.211
			c-1.15,0.06-2.502,0.36-2.563-1.495c-0.003-0.075-0.043-0.171-0.099-0.219c-0.495-0.436-1.15-0.938-0.599-1.599
			C103.29-192.382,104.027-192.405,104.574-192.588z"/>
		<path d="M423.967-244.215c1.028-0.854,2.244-0.602,2.81,0.684c0.504,1.146-0.786,1.342-1.208,1.991
			c-0.112,0.174-0.918,0.158-1.143-0.052c-0.697-0.651-1.293-1.421-1.867-2.189c-0.113-0.15,0.042-0.501,0.074-0.76
			C423.03-244.443,423.428-244.347,423.967-244.215z"/>
		<path d="M276.11-331.125c-0.345,0.37-0.82,1.166-1.521,1.549c-0.677,0.369-0.959-0.373-0.998-0.968
			c-0.051-0.759,0.079-1.534-0.807-1.979c-0.155-0.078-0.224-0.662-0.099-0.875c0.15-0.259,0.535-0.486,0.845-0.525
			C274.495-334.043,276.075-332.563,276.11-331.125z"/>
		<path d="M40.781-440.727c1.05,0.757,1.999,1.38,2.854,2.112c0.152,0.13-0.024,1.015-0.158,1.043
			c-0.596,0.128-1.258,0.185-1.848,0.052c-0.623-0.141-1.241-0.456-1.766-0.831c-0.329-0.235-0.759-0.923-0.661-1.057
			C39.54-439.871,40.088-440.181,40.781-440.727z"/>
		<path d="M80.258-430.222c0.479,0.422,1.311,0.804,1.363,1.273c0.111,0.993-0.942,1.761-1.912,1.732
			c-1.049-0.03-1.298-0.671-1.266-1.55C78.482-429.81,79.163-430.023,80.258-430.222z"/>
		<path d="M211.65-380.598c0.994-0.689,2.104-1.123,3.329-0.756c0.306,0.092,0.573,0.813,0.57,1.244
			c-0.001,0.254-0.613,0.76-0.871,0.713c-1.018-0.184-2.007-0.542-3.006-0.836C211.665-380.353,211.658-380.476,211.65-380.598z"/>
		<path d="M262.654-238.313c0.579,0.546,1.329,1.16,1.284,1.224c-0.456,0.658-1.041,1.227-1.59,1.819
			c-0.485-0.58-0.971-1.16-1.456-1.74C261.409-237.393,261.927-237.775,262.654-238.313z"/>
		<path d="M115.78-108.964c0.603,0.625,1.187,0.958,1.296,1.406c0.178,0.731-0.751,1.758-1.382,1.722
			c-1.03-0.06-1.316-0.895-1.239-1.642C114.502-107.929,115.172-108.314,115.78-108.964z"/>
		<path d="M6.304-485.897c0.179-0.39,0.313-1.103,0.743-1.464c0.248-0.209,1.07,0.015,1.461,0.289
			c0.569,0.397,1.307,0.941,0.809,1.789c-0.145,0.245-0.84,0.326-1.223,0.234C7.529-485.185,7.02-485.543,6.304-485.897z"/>
		<path d="M253.243-241.965c0.325,0,0.713-0.111,0.962,0.027c0.335,0.186,0.778,0.567,0.775,0.862
			c-0.002,0.296-0.448,0.752-0.781,0.844c-0.531,0.146-1.159,0.16-1.691,0.022c-0.417-0.109-0.994-0.477-1.076-0.827
			c-0.169-0.727,0.434-0.945,1.078-0.95c0.244-0.001,0.489,0,0.733,0C253.243-241.979,253.243-241.973,253.243-241.965z"/>
		<path d="M246.364-348.585c-0.35,0.389-0.638,1.006-1.061,1.117c-0.825,0.218-1.079-0.485-1.173-1.175
			c-0.038-0.277-0.121-0.617-0.005-0.832c0.263-0.486,0.636-0.912,0.965-1.363c0.316,0.438,0.659,0.859,0.933,1.321
			c0.112,0.191,0.074,0.472,0.104,0.713C246.206-348.73,246.285-348.658,246.364-348.585z"/>
		<path d="M49.4-431.242c0.036,0.713-2.192,2.207-2.75,1.919c-0.2-0.104-0.51-0.432-0.485-0.469c0.475-0.718,0.903-1.513,1.544-2.05
			c0.26-0.217,1.01,0.127,1.523,0.262C49.33-431.555,49.371-431.309,49.4-431.242z"/>
		<path d="M49.857-426.449c-0.145,1.076-0.215,1.818-0.365,2.546c-0.031,0.148-0.381,0.346-0.551,0.317
			c-0.162-0.026-0.32-0.299-0.411-0.496c-0.212-0.463-0.423-0.933-0.56-1.42c-0.135-0.476-0.314-1.017-0.198-1.455
			c0.058-0.218,0.816-0.471,1.114-0.352C49.338-427.128,49.662-426.635,49.857-426.449z"/>
		<path d="M164.088-260.299c-0.166,0.142-0.744,0.74-0.824,0.68c-0.667-0.505-1.242-1.131-1.846-1.72
			c0.405-0.291,0.791-0.79,1.219-0.829C163.625-262.259,164.117-261.652,164.088-260.299z"/>
		<path d="M136.045-395.851c-1.227-0.041-1.99-0.792-1.88-1.681c0.042-0.336,0.457-0.625,0.702-0.936
			c0.643,0.585,1.303,1.154,1.886,1.793C136.788-396.635,136.201-396.029,136.045-395.851z"/>
		<path d="M285.331-195.644c0.747,0.662,1.444,1.218,2.041,1.865c0.107,0.117-0.114,0.795-0.327,0.889
			c-0.292,0.129-0.766,0.035-1.08-0.124c-0.401-0.204-0.746-0.544-1.068-0.872c-0.23-0.235-0.585-0.609-0.523-0.81
			C284.469-195.005,284.873-195.218,285.331-195.644z"/>
		<path d="M18.756-483.176c-0.089,2.184-0.915,2.897-2.259,2.279c-0.645-0.297-0.946-0.881-0.314-1.297
			C16.9-482.664,17.815-482.834,18.756-483.176z"/>
		<path d="M408.542-14.519c-1.066-0.225-1.647-0.606-1.508-1.46c0.071-0.438,0.564-0.808,0.865-1.209
			c0.576,0.508,1.152,1.015,1.729,1.523C409.266-15.283,408.903-14.901,408.542-14.519z"/>
		<path d="M397.072-210.63c0.172,0.177,0.645,0.459,0.787,0.859c0.192,0.538-1.045,1.581-1.887,1.565
			c-0.271-0.006-0.722-0.385-0.768-0.649C395.081-209.564,396.052-210.589,397.072-210.63z"/>
		<path d="M115.83-226.777c0.473,0.56,1.01,1.079,1.389,1.695c0.176,0.285,0.145,0.799,0.01,1.129
			c-0.057,0.142-0.757,0.231-0.92,0.08c-0.459-0.425-0.898-0.942-1.132-1.512c-0.146-0.356,0.093-0.871,0.159-1.315
			C115.5-226.726,115.666-226.752,115.83-226.777z"/>
		<path d="M459.269-133.65c-0.728-0.6-1.238-1.021-1.749-1.442c0.36-0.315,0.722-0.891,1.082-0.891
			c0.654,0.001,1.62-0.018,1.622,1.009C460.224-134.614,459.724-134.254,459.269-133.65z"/>
		<path d="M117.318-285.939c0.566,0.629,1.166,0.988,1.207,1.403c0.089,0.881-0.683,0.93-1.358,0.928
			c-0.677-0.002-1.333-0.213-1.167-0.988C116.092-285.021,116.698-285.336,117.318-285.939z"/>
		<path d="M203.846-377.535c0.709,0.83,1.205,1.35,1.582,1.945c0.039,0.063-0.863,0.88-0.934,0.826
			c-0.526-0.398-1.018-0.888-1.369-1.445C203.029-376.361,203.453-376.84,203.846-377.535z"/>
		<path d="M385.129-331.648c-0.707,0.618-1.103,0.965-1.501,1.311c-0.313-0.435-0.845-0.857-0.871-1.31
			c-0.023-0.381,0.542-0.797,0.847-1.197C384.009-332.525,384.414-332.208,385.129-331.648z"/>
		<path d="M383.805-301.449c-0.46-0.57-0.746-0.926-1.032-1.281c0.385-0.309,0.782-0.875,1.152-0.857
			c0.408,0.019,0.792,0.573,1.186,0.895C384.743-302.342,384.375-301.992,383.805-301.449z"/>
		<path d="M381.859-151.628c-0.579,0.538-0.939,0.871-1.298,1.205c-0.287-0.411-0.8-0.822-0.799-1.232
			c0.001-0.4,0.526-0.801,0.821-1.2C380.938-152.516,381.29-152.176,381.859-151.628z"/>
		<path d="M287.8-309.379c-0.549,0.543-0.878,0.868-1.207,1.193c-0.289-0.406-0.778-0.799-0.807-1.224
			c-0.024-0.355,0.489-0.745,0.765-1.12C286.906-310.202,287.262-309.875,287.8-309.379z"/>
		<path d="M362.642-352.016c-0.573,0.494-0.929,0.801-1.285,1.108c-0.289-0.46-0.697-0.895-0.809-1.396
			c-0.045-0.198,0.621-0.811,0.869-0.761C361.803-352.986,362.107-352.504,362.642-352.016z"/>
		<path d="M73.533-99.747c-0.551,0.45-0.947,1.006-1.239,0.955c-0.354-0.062-0.901-0.669-0.86-0.974
			c0.056-0.431,0.574-0.801,0.895-1.196C72.661-100.627,72.994-100.291,73.533-99.747z"/>
		<path d="M361.338-469.227c-0.579-0.58-0.933-0.935-1.286-1.289c0.36-0.304,0.747-0.872,1.076-0.841
			c0.398,0.038,0.848,0.531,1.067,0.939C362.276-470.268,361.765-469.799,361.338-469.227z"/>
		<path d="M123.262-190.374c-0.48-0.516-0.794-0.853-1.107-1.189c0.383-0.273,0.769-0.764,1.147-0.759
			c0.383,0.005,0.759,0.502,1.138,0.783C124.108-191.211,123.777-190.883,123.262-190.374z"/>
		<path d="M222.621-414.696c-0.482-0.564-0.785-0.92-1.088-1.275c0.413-0.288,0.813-0.768,1.244-0.799
			c0.3-0.021,0.9,0.577,0.897,0.894C223.672-415.541,223.112-415.211,222.621-414.696z"/>
		<path d="M177.556-392.487c-0.41-0.565-0.661-0.911-0.911-1.257c0.418-0.277,0.836-0.766,1.256-0.769
			c0.348-0.002,0.699,0.567,1.049,0.884C178.555-393.306,178.159-392.982,177.556-392.487z"/>
		<path d="M111.823-124.538c-0.458-0.624-0.928-0.988-0.924-1.348c0.003-0.287,0.611-0.82,0.902-0.789
			c0.401,0.043,0.756,0.515,1.13,0.803C112.637-125.517,112.34-125.16,111.823-124.538z"/>
		<path d="M226.35-323.859c-0.482,0.58-0.965,1.161-1.447,1.741c-0.274-0.235-0.775-0.46-0.787-0.708
			c-0.063-1.346,1.213-0.925,1.836-1.391C226.084-324.098,226.217-323.978,226.35-323.859z"/>
		<path d="M337.273-482.493c-0.403-0.546-0.908-0.95-0.842-1.208c0.086-0.331,0.654-0.783,0.968-0.75
			c0.401,0.043,0.757,0.52,1.132,0.809C338.182-483.324,337.833-483.005,337.273-482.493z"/>
		<path d="M368.735-240.026c-0.605,0.514-0.938,1.008-1.31,1.04c-0.267,0.023-0.843-0.594-0.817-0.887
			c0.031-0.374,0.472-0.871,0.846-1C367.688-240.953,368.121-240.454,368.735-240.026z"/>
		<path d="M224.033-473.25c-0.508,0.512-0.832,0.839-1.157,1.166c-0.262-0.348-0.744-0.706-0.728-1.04
			c0.02-0.386,0.479-0.75,0.746-1.124C223.211-473.97,223.528-473.691,224.033-473.25z"/>
		<path d="M230.19-35.191c0.225,0.407,0.634,0.822,0.617,1.219c-0.015,0.33-0.53,0.638-0.825,0.956
			c-0.297-0.308-0.813-0.599-0.837-0.927c-0.03-0.397,0.355-0.825,0.56-1.24C229.867-35.187,230.028-35.188,230.19-35.191z"/>
		<path d="M481.976-294.908c-0.596,0.513-0.916,0.992-1.297,1.047c-0.262,0.037-0.607-0.518-0.915-0.808
			c0.354-0.304,0.671-0.697,1.08-0.87C481.025-295.616,481.395-295.248,481.976-294.908z"/>
		<path d="M210.063-109.647c-0.672,0.4-1.082,0.837-1.376,0.769c-0.33-0.075-0.783-0.626-0.76-0.937
			c0.025-0.321,0.547-0.819,0.875-0.838C209.111-110.672,209.449-110.166,210.063-109.647z"/>
		<path d="M255.035-405.848c-0.222-0.352-0.646-0.725-0.611-1.049c0.039-0.348,0.51-0.648,0.791-0.971
			c0.301,0.308,0.792,0.585,0.847,0.932c0.051,0.32-0.364,0.716-0.573,1.078C255.337-405.853,255.186-405.851,255.035-405.848z"/>
		<path d="M225.824-245.811c-0.447-0.666-0.908-1.057-0.854-1.352c0.062-0.336,0.584-0.811,0.906-0.811
			c0.301-0.002,0.802,0.518,0.843,0.854C226.758-246.817,226.291-246.453,225.824-245.811z"/>
		<path d="M239.98-436.855c-0.378-0.691-0.758-1.076-0.721-1.415c0.031-0.291,0.539-0.53,0.836-0.792
			c0.281,0.318,0.73,0.611,0.789,0.967C240.928-437.832,240.464-437.484,239.98-436.855z"/>
		<path d="M468.53-226.237c0.421,0.663,0.828,1.023,0.811,1.363c-0.014,0.291-0.583,0.829-0.781,0.777
			c-0.355-0.094-0.776-0.51-0.858-0.863C467.642-225.216,468.086-225.589,468.53-226.237z"/>
		<path d="M193.822-249.078c-0.634,0.368-1.001,0.755-1.295,0.706c-0.316-0.053-0.564-0.515-0.843-0.798
			c0.318-0.281,0.608-0.726,0.965-0.788C192.904-250.003,193.248-249.533,193.822-249.078z"/>
		<path d="M422.334-224.769c-0.702,0.351-1.099,0.715-1.439,0.667c-0.286-0.04-0.768-0.655-0.697-0.844
			c0.127-0.343,0.578-0.726,0.934-0.77C421.398-225.747,421.727-225.272,422.334-224.769z"/>
		<path d="M197.625-361.176c-0.351,0.223-0.707,0.623-1.049,0.611c-0.285-0.009-0.77-0.498-0.774-0.78
			c-0.004-0.3,0.434-0.821,0.718-0.851c0.341-0.034,0.726,0.35,1.091,0.553C197.615-361.486,197.62-361.332,197.625-361.176z"/>
		<path d="M146.33-155.113c-0.604,0.398-0.982,0.833-1.238,0.77c-0.355-0.087-0.618-0.549-0.92-0.85
			c0.324-0.276,0.622-0.715,0.982-0.774C145.416-156.011,145.76-155.551,146.33-155.113z"/>
		<path d="M109.698-187.323c-0.35,0.23-0.703,0.643-1.048,0.635c-0.289-0.006-0.773-0.487-0.793-0.781
			c-0.018-0.283,0.428-0.807,0.716-0.843c0.341-0.042,0.733,0.326,1.103,0.517C109.684-187.639,109.69-187.48,109.698-187.323z"/>
		<path d="M201.967-116.637c-0.682,0.375-1.092,0.778-1.344,0.696c-0.342-0.112-0.719-0.569-0.775-0.927
			c-0.032-0.204,0.554-0.719,0.843-0.704C201.03-117.556,201.35-117.117,201.967-116.637z"/>
		<path d="M247.479-113.649c-0.692,0.394-1.072,0.78-1.416,0.751c-0.285-0.024-0.789-0.615-0.73-0.82
			c0.1-0.343,0.543-0.746,0.895-0.805C246.493-114.568,246.843-114.117,247.479-113.649z"/>
		<path d="M372.832-110.747c-0.693,0.453-1.046,0.858-1.392,0.853c-0.275-0.004-0.542-0.512-0.813-0.796
			c0.313-0.287,0.59-0.712,0.955-0.813C371.817-111.569,372.185-111.16,372.832-110.747z"/>
		<path d="M36.125-104.607c-0.596,0.405-0.961,0.843-1.23,0.79c-0.356-0.069-0.638-0.523-0.951-0.812
			c0.32-0.279,0.613-0.722,0.971-0.783C35.186-105.458,35.54-105.019,36.125-104.607z"/>
		<path d="M289.611-33.606c-0.42-0.578-0.87-0.935-0.82-1.195c0.068-0.356,0.517-0.642,0.802-0.957
			c0.292,0.311,0.745,0.587,0.82,0.944C290.468-34.556,290.021-34.191,289.611-33.606z"/>
		<path d="M318.214-345.087c-0.683,0.38-1.092,0.786-1.344,0.704c-0.345-0.111-0.571-0.592-0.849-0.914
			c0.303-0.26,0.613-0.733,0.906-0.723C317.268-346.006,317.591-345.566,318.214-345.087z"/>
		<path d="M154.151-343.428c0.409,0.578,0.852,0.938,0.799,1.195c-0.075,0.355-0.521,0.634-0.81,0.945
			c-0.289-0.313-0.741-0.592-0.814-0.949C153.273-342.49,153.729-342.85,154.151-343.428z"/>
		<path d="M47.958-319.599c-0.399-0.691-0.791-1.067-0.759-1.404c0.027-0.294,0.53-0.544,0.823-0.814
			c0.284,0.315,0.729,0.6,0.798,0.958C48.869-320.599,48.423-320.243,47.958-319.599z"/>
		<path d="M114.643-222.146c0.434,0.603,0.856,0.938,0.868,1.286c0.009,0.265-0.505,0.547-0.787,0.821
			c-0.285-0.321-0.681-0.605-0.811-0.98C113.847-221.213,114.252-221.569,114.643-222.146z"/>
		<path d="M412.847-353.043c-0.376-0.615-0.801-1.017-0.725-1.258c0.109-0.342,0.588-0.567,0.908-0.843
			c0.244,0.308,0.672,0.61,0.682,0.926C413.722-353.922,413.291-353.611,412.847-353.043z"/>
		<path d="M423.049-147.77c-0.438-0.658-0.855-1.011-0.842-1.349c0.01-0.295,0.503-0.573,0.782-0.858
			c0.301,0.3,0.76,0.562,0.849,0.914C423.901-148.807,423.474-148.428,423.049-147.77z"/>
		<path d="M140.004-86.165c-0.363,0.203-0.744,0.587-1.087,0.555c-0.289-0.027-0.743-0.538-0.738-0.83
			c0.005-0.287,0.482-0.78,0.771-0.796c0.344-0.018,0.707,0.38,1.063,0.597C140.01-86.481,140.007-86.323,140.004-86.165z"/>
		<path d="M363.406-38.745c-0.344,0.238-0.688,0.657-1.032,0.656c-0.286,0-0.779-0.476-0.8-0.771
			c-0.021-0.286,0.411-0.819,0.697-0.858c0.34-0.047,0.735,0.318,1.107,0.505C363.388-39.057,363.397-38.9,363.406-38.745z"/>
		<path d="M481.961-304.648c-0.685,0.377-1.099,0.782-1.347,0.699c-0.345-0.117-0.567-0.6-0.842-0.926
			c0.306-0.256,0.62-0.727,0.913-0.713C481.024-305.572,481.344-305.131,481.961-304.648z"/>
		<path d="M484.62-208.487c-0.37-0.608-0.76-0.965-0.719-1.26c0.045-0.311,0.501-0.563,0.777-0.842
			c0.288,0.307,0.743,0.583,0.808,0.932C485.534-209.404,485.064-209.056,484.62-208.487z"/>
		<path d="M284.544-183.224c-0.411-0.589-0.86-0.964-0.798-1.208c0.088-0.345,0.555-0.594,0.859-0.884
			c0.261,0.291,0.704,0.566,0.731,0.879C285.363-184.143,284.951-183.81,284.544-183.224z"/>
		<path d="M246.137-432.895c0.588,0.692,1.058,1.247,1.528,1.801c-0.173,0.127-0.46,0.395-0.503,0.359
			c-0.541-0.436-1.058-0.904-1.539-1.405C245.59-432.176,245.881-432.524,246.137-432.895z"/>
		<path d="M73.499-440.874c-0.313,0.138-0.67,0.439-0.931,0.371c-0.349-0.09-0.624-0.466-0.931-0.72
			c0.269-0.235,0.556-0.682,0.8-0.66c0.385,0.035,0.74,0.387,1.109,0.603C73.531-441.145,73.515-441.009,73.499-440.874z"/>
		<path d="M345.292-253.451c0.366,0.642,0.755,1.018,0.697,1.305c-0.063,0.305-0.56,0.742-0.841,0.723
			c-0.278-0.019-0.712-0.522-0.729-0.833C344.403-252.549,344.84-252.867,345.292-253.451z"/>
		<path d="M83.476-417.195c0.374,0.611,0.801,1.016,0.722,1.25c-0.113,0.34-0.592,0.558-0.914,0.828
			c-0.244-0.307-0.668-0.608-0.677-0.922C82.598-416.332,83.031-416.637,83.476-417.195z"/>
		<path d="M476.855-279.386c-0.67,0.374-1.061,0.767-1.329,0.697c-0.303-0.079-0.642-0.561-0.68-0.899
			c-0.023-0.205,0.503-0.67,0.768-0.658C475.934-280.233,476.237-279.84,476.855-279.386z"/>
		<path d="M214.052-387.592c-0.642,0.383-1.008,0.777-1.295,0.727c-0.309-0.057-0.763-0.542-0.747-0.818
			c0.016-0.284,0.502-0.728,0.815-0.757C213.115-388.467,213.445-388.036,214.052-387.592z"/>
		<path d="M53.063-14.393c-0.406-0.654-0.811-1.019-0.76-1.3c0.056-0.303,0.512-0.675,0.843-0.733
			c0.199-0.035,0.689,0.468,0.694,0.735C53.848-15.369,53.477-15.041,53.063-14.393z"/>
		<path d="M293.905-164.266c-0.65,0.411-1.012,0.817-1.292,0.768c-0.304-0.054-0.676-0.506-0.738-0.837
			c-0.036-0.196,0.462-0.688,0.73-0.695C292.925-165.04,293.255-164.673,293.905-164.266z"/>
		<path d="M41.653-455.156c-0.128-0.375-0.409-0.782-0.342-1.119c0.063-0.322,0.486-0.789,0.758-0.794
			c0.298-0.005,0.603,0.448,0.903,0.7c-0.23,0.275-0.461,0.551-0.691,0.825C42.072-455.414,41.862-455.285,41.653-455.156z"/>
		<path d="M412.003-370.411c-0.512,0.339-0.832,0.716-1.103,0.683c-0.286-0.033-0.524-0.459-0.783-0.715
			c0.284-0.268,0.537-0.686,0.863-0.754C411.201-371.244,411.525-370.799,412.003-370.411z"/>
		<path d="M438.341-4.482c-0.572,0.337-0.91,0.692-1.223,0.671c-0.259-0.018-0.487-0.479-0.729-0.743
			c0.285-0.261,0.544-0.671,0.867-0.731C437.486-5.329,437.805-4.901,438.341-4.482z"/>
		<path d="M365.484-261.327c-0.477,0.366-0.805,0.794-1.024,0.745c-0.319-0.072-0.559-0.488-0.834-0.759
			c0.262-0.244,0.508-0.657,0.789-0.683C364.685-262.049,364.991-261.67,365.484-261.327z"/>
		<path d="M243.049-467.685c-0.235-0.488-0.483-0.854-0.427-0.909c0.475-0.466,1.003-0.878,1.532-1.282
			c0.017-0.013,0.362,0.336,0.344,0.361C244.086-468.958,243.645-468.422,243.049-467.685z"/>
		<path d="M239.13-397.704c-0.5,0.329-0.857,0.73-1.07,0.663c-0.312-0.096-0.52-0.527-0.771-0.815
			c0.276-0.225,0.55-0.617,0.831-0.622C238.388-398.481,238.663-398.083,239.13-397.704z"/>
		<path d="M43.037-423.131c0.32,0.549,0.681,0.891,0.632,1.157c-0.05,0.278-0.497,0.483-0.77,0.721
			c-0.235-0.275-0.643-0.544-0.654-0.827C42.236-422.352,42.642-422.637,43.037-423.131z"/>
		<path d="M127.791-355.935c-0.41,0.35-0.684,0.582-0.957,0.814c-0.218-0.336-0.579-0.662-0.604-1.011
			c-0.016-0.226,0.463-0.486,0.719-0.731C127.19-356.597,127.432-356.33,127.791-355.935z"/>
		<path d="M51.006-88.38c-0.336-0.52-0.705-0.84-0.667-1.1c0.04-0.274,0.47-0.491,0.729-0.732c0.242,0.26,0.652,0.507,0.674,0.785
			C51.764-89.166,51.374-88.872,51.006-88.38z"/>
		<path d="M322.919-466.225c0.338,0.605,0.645,0.904,0.613,1.162c-0.04,0.326-0.357,0.617-0.555,0.924
			c-0.209-0.252-0.569-0.493-0.588-0.76C322.366-465.217,322.634-465.557,322.919-466.225z"/>
		<path d="M409.947-276.387c-0.379-0.512-0.733-0.783-0.751-1.076c-0.015-0.235,0.414-0.721,0.583-0.695
			c0.307,0.049,0.736,0.357,0.796,0.628C410.63-277.279,410.27-276.935,409.947-276.387z"/>
		<path d="M78.396-218.671c-0.371-0.541-0.749-0.85-0.722-1.116c0.029-0.276,0.449-0.513,0.699-0.767
			c0.23,0.231,0.639,0.455,0.648,0.695C79.033-219.558,78.719-219.244,78.396-218.671z"/>
		<path d="M80.338-204.679c0.34,0.442,0.732,0.749,0.684,0.941c-0.076,0.297-0.455,0.516-0.707,0.767
			c-0.219-0.241-0.59-0.47-0.613-0.73C79.68-203.945,80.022-204.223,80.338-204.679z"/>
		<path d="M238.084-442.253c0.316,0.501,0.648,0.8,0.641,1.09c-0.006,0.226-0.512,0.66-0.664,0.609
			c-0.293-0.099-0.627-0.446-0.688-0.743C237.331-441.501,237.723-441.793,238.084-442.253z"/>
		<path d="M370.484-327.032c-0.465,0.362-0.761,0.756-0.965,0.713c-0.299-0.063-0.642-0.401-0.744-0.698
			c-0.05-0.147,0.392-0.654,0.617-0.658C369.685-327.682,369.984-327.349,370.484-327.032z"/>
		<path d="M90.469-236.551c0.365-0.371,0.73-0.741,1.096-1.112c0.178,0.187,0.524,0.521,0.51,0.539
			c-0.342,0.387-0.722,0.74-1.096,1.099C90.809-236.2,90.639-236.376,90.469-236.551z"/>
		<path d="M221.221-486.795c-0.341-0.314-0.682-0.63-1.023-0.945c0.233-0.217,0.466-0.433,0.699-0.649
			c0.291,0.371,0.582,0.741,0.873,1.112C221.586-487.116,221.404-486.955,221.221-486.795z"/>
		<path d="M436.136-154.184c-0.404,0.341-0.684,0.745-0.887,0.709c-0.299-0.052-0.543-0.418-0.811-0.65
			c0.252-0.25,0.471-0.631,0.766-0.703C435.404-154.878,435.711-154.495,436.136-154.184z"/>
		<path d="M235.1-215.726c-0.584,0.311-0.908,0.622-1.197,0.593c-0.227-0.022-0.582-0.478-0.566-0.72
			c0.014-0.236,0.436-0.635,0.662-0.624C234.29-216.464,234.566-216.113,235.1-215.726z"/>
		<path d="M325.541-183.378c-0.61,0.241-0.938,0.493-1.211,0.443c-0.257-0.047-0.456-0.411-0.682-0.635
			c0.295-0.152,0.585-0.408,0.887-0.424C324.769-184.005,325.018-183.715,325.541-183.378z"/>
		<path d="M160.244-305.761c0.316,0.459,0.659,0.739,0.636,0.983c-0.024,0.26-0.398,0.485-0.618,0.727
			c-0.25-0.253-0.629-0.474-0.703-0.77C159.511-305.015,159.904-305.318,160.244-305.761z"/>
		<path d="M244.109-475.578c-0.457,0.322-0.775,0.703-0.969,0.647c-0.293-0.084-0.499-0.473-0.742-0.733
			c0.251-0.211,0.493-0.573,0.755-0.588C243.398-476.268,243.664-475.912,244.109-475.578z"/>
		<path d="M61.142-19.691c0.333,0.437,0.69,0.702,0.679,0.949c-0.012,0.26-0.379,0.503-0.592,0.753
			c-0.26-0.243-0.65-0.448-0.735-0.741C60.438-18.924,60.822-19.244,61.142-19.691z"/>
		<path d="M231.904-481.65c0.365,0.43,0.775,0.715,0.736,0.91c-0.059,0.299-0.43,0.537-0.668,0.801
			c-0.232-0.229-0.617-0.438-0.654-0.693C231.283-480.879,231.611-481.176,231.904-481.65z"/>
		<path d="M37.885-26.853c-0.42,0.358-0.709,0.772-0.904,0.732c-0.3-0.062-0.534-0.437-0.796-0.679
			c0.231-0.233,0.441-0.623,0.698-0.657C37.129-27.487,37.423-27.149,37.885-26.853z"/>
		<path d="M444.33-189.509c0.287,0.466,0.648,0.807,0.581,0.998c-0.101,0.286-0.501,0.467-0.774,0.692
			c-0.196-0.262-0.549-0.525-0.546-0.785C443.595-188.85,443.969-189.091,444.33-189.509z"/>
		<path d="M256.17-283.552c-0.291-0.495-0.614-0.801-0.57-1.038c0.048-0.251,0.443-0.438,0.687-0.652
			c0.214,0.246,0.584,0.484,0.596,0.739C256.895-284.262,256.529-284.004,256.17-283.552z"/>
		<path d="M219.848-75.366c-0.293-0.436-0.631-0.72-0.6-0.954c0.033-0.248,0.488-0.67,0.637-0.623
			c0.294,0.091,0.629,0.422,0.701,0.714C220.629-76.055,220.205-75.765,219.848-75.366z"/>
		<path d="M474.503-55.907c-0.365,0.234-0.656,0.523-0.758,0.467c-0.306-0.167-0.537-0.47-0.798-0.72
			c0.227-0.186,0.503-0.558,0.67-0.514C473.901-56.6,474.117-56.264,474.503-55.907z"/>
		<path d="M47.287-50.263c-0.365,0.678-0.521,1.146-0.83,1.466c-0.158,0.165-0.592,0.066-0.9,0.087
			c0.063-0.277,0.032-0.673,0.205-0.808C46.117-49.796,46.582-49.935,47.287-50.263z"/>
		<path d="M24.705-46.036c-0.286-0.452-0.613-0.74-0.58-0.979c0.035-0.253,0.412-0.458,0.641-0.684
			c0.24,0.256,0.609,0.484,0.674,0.778C25.48-46.734,25.066-46.449,24.705-46.036z"/>
		<path d="M158.174-194.658c-0.449,0.359-0.709,0.727-0.949,0.716c-0.254-0.014-0.666-0.378-0.682-0.61
			c-0.015-0.228,0.355-0.635,0.608-0.681C157.388-195.275,157.691-194.948,158.174-194.658z"/>
		<path d="M398.748-1.479c-0.498,0.308-0.768,0.603-1.036,0.599c-0.207-0.003-0.604-0.425-0.568-0.579
			c0.063-0.273,0.369-0.641,0.617-0.678C397.986-2.17,398.27-1.817,398.748-1.479z"/>
		<path d="M176.607-486.566c0.309,0.422,0.492,0.674,0.678,0.926c-0.268,0.18-0.527,0.479-0.806,0.498
			c-0.193,0.014-0.604-0.392-0.577-0.551C175.947-485.958,176.268-486.175,176.607-486.566z"/>
		<path d="M56.086-287.559c-0.5,0.313-0.803,0.648-1.029,0.604c-0.247-0.05-0.531-0.428-0.59-0.707
			c-0.029-0.145,0.396-0.547,0.609-0.541C55.342-288.195,55.6-287.889,56.086-287.559z"/>
		<path d="M25.755-336.053c-0.509,0.297-0.821,0.625-1.048,0.574c-0.245-0.056-0.517-0.447-0.566-0.729
			c-0.025-0.147,0.414-0.537,0.624-0.523C25.031-336.713,25.28-336.398,25.755-336.053z"/>
		<path d="M2.454-212.764c0.354,0.47,0.674,0.712,0.696,0.978c0.018,0.211-0.364,0.658-0.51,0.635
			c-0.284-0.046-0.682-0.308-0.742-0.554C1.842-211.929,2.165-212.249,2.454-212.764z"/>
		<path d="M484.653-212.861c-0.453,0.359-0.716,0.726-0.946,0.706c-0.247-0.021-0.574-0.373-0.65-0.642
			c-0.043-0.153,0.334-0.594,0.542-0.607C483.864-213.423,484.149-213.14,484.653-212.861z"/>
		<path d="M394.665-452.385c-0.295-0.473-0.627-0.771-0.585-1.002c0.046-0.248,0.448-0.607,0.681-0.597
			c0.226,0.011,0.589,0.421,0.602,0.671C395.374-453.076,395.011-452.819,394.665-452.385z"/>
		<path d="M294.643-75.328c-0.489,0.335-0.776,0.683-1.005,0.647c-0.249-0.04-0.549-0.407-0.616-0.684
			c-0.035-0.146,0.373-0.564,0.583-0.566C293.872-75.934,294.143-75.639,294.643-75.328z"/>
		<path d="M52.005-475.432c-0.286-0.535-0.584-0.84-0.544-1.089c0.041-0.256,0.414-0.458,0.641-0.683
			c0.199,0.248,0.543,0.492,0.555,0.748C52.667-476.199,52.342-475.93,52.005-475.432z"/>
		<path d="M456.295-342.1c0.357,0.404,0.723,0.646,0.696,0.829c-0.041,0.274-0.315,0.601-0.575,0.72
			c-0.122,0.057-0.612-0.304-0.63-0.503C455.763-341.317,456.038-341.608,456.295-342.1z"/>
		<path d="M436.101-308.757c-0.477,0.277-0.753,0.563-1.016,0.552c-0.2-0.01-0.582-0.478-0.532-0.6
			c0.107-0.265,0.415-0.556,0.687-0.609C435.42-309.449,435.679-309.096,436.101-308.757z"/>
		<path d="M214.73-397.716c-0.451,0.29-0.737,0.608-0.916,0.558c-0.262-0.077-0.446-0.418-0.664-0.645
			c0.207-0.195,0.424-0.556,0.621-0.546C214.033-398.336,214.281-398.033,214.73-397.716z"/>
		<path d="M388.675-282.559c-0.32-0.477-0.66-0.762-0.627-0.992c0.035-0.242,0.402-0.538,0.673-0.602
			c0.145-0.034,0.557,0.371,0.556,0.576C389.274-283.31,388.981-283.045,388.675-282.559z"/>
		<path d="M381.474-217.894c-0.286-0.492-0.613-0.808-0.556-1.022c0.063-0.24,0.463-0.497,0.742-0.53
			c0.156-0.019,0.532,0.416,0.511,0.615C382.143-218.567,381.823-218.335,381.474-217.894z"/>
	</g>
</pattern>
<g id="background">
	<g>
		<g>
			<rect x="0" y="0" fill="#04263F" width="1700" height="1000"/>
			<g>
				<g>
					
						<circle fill="none" stroke="#2CCACA" stroke-width="7" stroke-linecap="round" stroke-linejoin="round" stroke-miterlimit="10" cx="793.233" cy="315.891" r="50.95"/>
					
						<circle fill="none" stroke="#2CCACA" stroke-width="7" stroke-linecap="round" stroke-linejoin="round" stroke-miterlimit="10" cx="942.479" cy="315.891" r="50.95"/>
					
						<path fill="none" stroke="#2CCACA" stroke-width="7" stroke-linecap="round" stroke-linejoin="round" stroke-miterlimit="10" d="
						M844.2,316.638c0-13.069,10.595-23.664,23.664-23.664c13.069,0,23.664,10.595,23.664,23.664"/>
				</g>
				<g>
					<g>
						<path fill="#FFFFFF" d="M867.401,442.371c7.813-11.247,23.717-31.636,49.218-53.414c22-18.788,46.627-34.704,73.195-47.308
							c33.171-15.736,69.47-26.318,107.888-31.452c3.659-0.488,7.031,2.084,7.52,5.747c0.49,3.664-2.083,7.031-5.747,7.52
							c-78.355,10.471-133.384,42.73-167.25,69.945c73.451-46.302,158.047-49.086,176.767-49.103
							c2.244-0.002,4.221,1.464,4.868,3.612l18.062,59.904c0.794,2.634-0.654,5.422-3.266,6.287l-254.581,84.293
							c-3.286,1.088-6.674-1.359-6.674-4.821V442.371z"/>
						<path fill="#FFFFFF" d="M867.401,493.582c0,3.462-3.388,5.909-6.674,4.821L606.146,414.11
							c-2.612-0.865-4.06-3.652-3.266-6.287l18.062-59.904c0.648-2.149,2.624-3.614,4.869-3.612
							c18.72,0.017,103.314,2.801,176.765,49.102c-33.865-27.215-88.894-59.473-167.248-69.944c-3.664-0.49-6.236-3.857-5.747-7.52
							c0.489-3.664,3.85-6.24,7.521-5.747c38.417,5.134,74.716,15.716,107.888,31.452c26.568,12.604,51.194,28.52,73.195,47.308
							c25.501,21.778,41.405,42.167,49.218,53.414V493.582z"/>
						<path fill="#2CCACA" d="M867.336,520.98c-2.179,0-4.357-0.347-6.452-1.041L595.804,432.15
							c-10.76-3.563-16.594-15.175-13.03-25.935c3.564-10.761,15.173-16.597,25.935-13.031l258.629,85.653l258.759-85.654
							c10.763-3.562,22.372,2.274,25.933,13.034c3.562,10.76-2.274,22.371-13.034,25.933l-265.21,87.789
							C871.692,520.634,869.514,520.98,867.336,520.98z"/>
						<path fill="#2CCACA" d="M867.346,484.326c-17.63,0-32.969,9.803-40.87,24.254l35.229,11.667
							c1.831,0.606,3.734,0.909,5.639,0.909c1.903,0,3.807-0.303,5.637-0.909l35.237-11.664
							C900.318,494.131,884.978,484.326,867.346,484.326z"/>
					</g>
					<g>
						<path fill="#FFFFFF" d="M592.351,730.565c-2.154,1.539-3.658-1.367-3.658-6.477c0-5.117,2.364-10.247,5.382-12.053
							c1.868-1.133,3.739-2.247,5.613-3.34c0-74.595,0-149.189,0-223.784c-1.946-1.138-3.888-2.297-5.828-3.477
							c-3.018-1.809-5.381-7.314-5.381-12.437c0-5.124,2.364-7.038,5.381-4.904c7.976,5.582,15.998,10.744,24.066,15.529
							c3.052,1.832,5.458,6.541,5.458,10.777c0,4.235-2.405,6.09-5.458,4.535c-1.889-0.974-3.777-1.967-5.661-2.978
							c0,69.901,0,139.803,0,209.704c8.989-4.813,18.034-9.205,27.129-13.226c0-19.485,0-38.969,0-58.453
							c0-3.952,2.42-7.35,5.507-7.704c0.589-0.071,1.177-0.141,1.765-0.212c3.089-0.351,5.523,2.281,5.523,5.965
							c0,20.45,0,40.9,0,61.35c-0.001,3.685-2.433,7.714-5.523,9.222C628.348,707.442,610.228,717.947,592.351,730.565z"/>
						<path fill="#FFFFFF" d="M694.517,668.447c3.141-0.9,5.613,0.779,5.614,3.773c0,0.214,0,0.43,0,0.645
							c0,2.567-2.473,5.283-5.614,6.345c-8.824,2.952-17.614,6.208-26.364,9.806c-2.224,0.926-3.779-1.163-3.779-4.674
							c0-3.515,2.443-6.919,5.559-8.003c1.929-0.681,3.86-1.346,5.793-1.998c0-51.669,0-103.338,0-155.007
							c-1.858-0.628-3.715-1.269-5.57-1.924c-3.339-1.162-5.782-4.821-5.782-8.336c0-3.517,2.443-4.974,5.559-3.693
							c8.161,3.317,16.358,6.34,24.584,9.097c3.141,1.065,5.613,4.213,5.614,7.208c0,2.994-2.473,4.459-5.614,3.554
							c-1.944-0.567-3.887-1.146-5.828-1.739c0,48.893,0,97.787,0,146.68C690.63,669.59,692.573,669.013,694.517,668.447z"/>
						<path fill="#FFFFFF" d="M782.737,574.709c0.001,12.001-8.468,16.871-19.871,17.114c15.284,0.828,21.247,10.378,21.243,23.34
							c0,7.033,0,14.066,0,21.099c0.003,16.061-10.993,23.719-26.257,26.665c-12.909,2.416-25.773,5.322-38.574,8.797
							c-3.162,0.867-5.642-0.66-5.643-3.526c0-2.864,2.48-5.522,5.643-6.258c2.033-0.48,4.068-0.947,6.104-1.402
							c0-42.457,0-84.914,0-127.371c-2.036-0.456-4.071-0.924-6.104-1.405c-3.162-0.738-5.642-3.6-5.643-6.464
							c0-2.865,2.48-4.188,5.643-3.319c12.801,3.482,25.664,6.394,38.574,8.816c17.777,3.391,24.89,14.012,24.885,27.545
							C782.737,563.796,782.737,569.252,782.737,574.709z M738.525,587.139c5.143,0.164,10.296,0.316,15.456,0.456
							c11.157,0.247,15.504-5.453,15.502-13.268c0-6.374,0-12.748,0-19.121c0.001-10.036-5.253-14.698-12.542-15.929
							c-6.15-1.013-12.289-2.122-18.416-3.337C738.525,553.006,738.525,570.073,738.525,587.139z M770.853,616.768
							c0.001-15.052-7.768-20.877-18.238-20.981c-4.703-0.016-9.4-0.033-14.09-0.051c0,20.679,0,41.358,0,62.037
							c4.69-0.928,9.386-1.794,14.09-2.602c13.204-2.289,18.241-8.299,18.238-15.946
							C770.853,631.738,770.853,624.254,770.853,616.768z"/>
						<path fill="#FFFFFF" d="M872.312,645.763c3.221,0.02,5.522,1.707,5.522,3.808c-0.001,2.104-2.532,3.56-5.753,3.539
							c-4.295-0.029-8.592-0.015-12.887,0.042c-3.221,0.043-5.753-1.55-5.752-3.657c0-11.477,0-22.954,0-34.431
							c-0.001-15.323-11.044-16.526-16.562-16.522c-4.599,0.006-9.197,0.014-13.791,0.023c0,16.18,0,32.36,0,48.54
							c3.293-0.202,6.587-0.38,9.882-0.537c3.218-0.151,5.749,1.422,5.749,3.542c0,2.123-2.53,3.75-5.749,3.928
							c-9.809,0.535-19.61,1.3-29.395,2.307c-3.21,0.334-5.732-1.14-5.731-3.388c0-2.248,2.521-4.101,5.731-4.384
							c2.064-0.185,4.129-0.36,6.195-0.526c0-34.12,0-68.24,0-102.359c-2.065-0.166-4.13-0.342-6.195-0.527
							c-3.21-0.284-5.732-2.297-5.731-4.545c0-2.249,2.521-3.562,5.731-3.227c13.531,1.396,27.092,2.329,40.664,2.828
							c5.058,0.29,23.699,1.856,23.699,21.721c0,5.598,0,11.195,0,16.793c0.001,0.001-0.002,15.593-21.169,16.33
							c4.83,0.163,20.019,1.965,20.019,21.002c0,9.895,0,19.791,0,29.686C868.63,645.747,870.471,645.751,872.312,645.763z
							 M836.88,591.554c16.098,0.052,17.944-9.114,17.713-12.116c0-6.362,0-12.724,0-19.086
							c-0.001-11.247-10.125-12.677-15.413-12.911c-5.366-0.209-10.73-0.477-16.091-0.807c0,14.947,0,29.895,0,44.842
							C827.683,591.507,832.281,591.533,836.88,591.554z"/>
						<path fill="#FFFFFF" d="M966.396,652.583c3.194,0.452,5.704,2.749,5.703,5.184c0,2.437-2.508,3.724-5.703,3.191
							c-8.446-1.395-16.909-2.589-25.386-3.596c-3.207-0.386-5.73-2.411-5.729-4.641c-0.001-2.229,2.522-3.59,5.729-3.263
							c1.986,0.205,3.97,0.419,5.955,0.642c-2.366-13.057-4.733-25.909-7.101-38.585c-7.18-0.203-14.369-0.373-21.564-0.513
							c-2.373,12.119-4.746,24.121-7.12,36.034c1.991,0.119,3.982,0.246,5.973,0.381c3.215,0.215,5.74,2.131,5.74,4.323
							c0,2.193-2.526,3.53-5.74,3.275c-8.497-0.665-17.004-1.155-25.515-1.473c-3.221-0.122-5.752-1.846-5.752-3.954
							c0-2.107,2.53-3.555,5.752-3.451c2.07,0.067,4.14,0.143,6.209,0.228c7.052-34.125,14.1-68.747,21.142-104.523
							c0.459-1.898,2.755-3.486,5.51-3.739c3.06-0.278,6.119-0.579,9.176-0.904c2.751-0.295,5.043,0.883,5.502,2.764
							c7.026,35.668,14.045,72.684,21.052,111.765C962.286,652.003,964.341,652.288,966.396,652.583z M933.676,575.387
							c-1.529-10.443-3.058-20.803-4.588-31.088c-1.529,10.553-3.058,21.021-4.589,31.414c-1.836,9.62-3.673,19.154-5.51,28.618
							c6.736,0.069,13.466,0.153,20.188,0.252C937.344,594.75,935.511,585.023,933.676,575.387z"/>
						<path fill="#FFFFFF" d="M1054.34,672.569c3.128,0.999,5.357,4.373,5.358,7.713c-0.001,3.344-2.451,4.762-5.58,3.587
							c-4.171-1.55-8.349-3.026-12.537-4.435c-3.141-1.07-5.613-4.225-5.613-7.228c0-16.435,0-32.872,0-49.307
							c0.004-22.15-10.79-23.803-16.214-23.822c-4.514-0.036-9.036-0.07-13.565-0.102c0,20.239,0,40.477,0,60.717
							c3.245,0.7,6.488,1.431,9.726,2.194c3.163,0.733,5.644,3.593,5.643,6.454c0,2.864-2.479,4.188-5.643,3.321
							c-9.639-2.611-19.313-4.899-29.015-6.9c-3.183-0.664-5.689-3.104-5.688-5.59c0-2.485,2.504-3.846,5.688-3.283
							c2.047,0.367,4.093,0.745,6.137,1.134c0-40.11,0.001-80.22,0-120.329c-2.045,0.39-4.09,0.769-6.137,1.137
							c-3.183,0.564-5.689-0.973-5.688-3.458c0-2.486,2.504-4.749,5.688-5.415c13.417-2.772,26.779-6.096,40.069-10.064
							c4.974-1.356,23.139-5.878,23.124,24.788c0,8.518,0,17.035,0,25.553c-0.015-0.043,0.037,24.13-20.647,25.093
							c4.738,0.125,19.537,2.385,19.528,31.579c0,14.987,0,29.974,0,44.961C1050.764,671.423,1052.553,671.99,1054.34,672.569z
							 M1019.753,589.769c15.786-0.26,17.555-13.685,17.337-18.013c0.001-9.156-0.001-18.311,0-27.467
							c0.004-16.33-9.889-15.224-15.08-13.949c-5.264,1.311-10.538,2.534-15.821,3.677c0,18.696,0,37.394,0,56.091
							C1010.717,590.001,1015.24,589.889,1019.753,589.769z"/>
						<path fill="#FFFFFF" d="M1141.569,464.093c3.018-2.137,5.381,0.142,5.381,5.268c0.001,5.121-2.363,10.261-5.381,12.073
							c-1.94,1.181-3.882,2.339-5.828,3.477c-8.647,50.931-17.349,95.255-26.1,134.437c0,25.135,0,60.767,0,85.902
							c2.991,1.456,5.975,2.957,8.953,4.501c3.051,1.559,5.442,6.408,5.441,10.952c-0.001,4.547-2.389,6.285-5.441,4.445
							c-10.17-6.068-20.41-11.533-30.713-16.472c-3.09-1.499-5.524-5.509-5.524-9.179c-0.001-3.67,2.434-5.336,5.524-4.065
							c3.017,1.257,6.028,2.554,9.035,3.891c0-23.612,0-57.724,0-81.335c-8.799-38.617-17.645-72.355-26.533-102.418
							c-2.001,0.733-4.001,1.451-6.005,2.153c-3.116,1.078-5.572-0.709-5.572-4.009c0.001-3.302,2.454-6.613,5.572-7.882
							c8.239-3.32,16.442-6.94,24.607-10.892c3.09-1.514,5.511,0.327,5.51,4.252c0,3.922-2.421,7.778-5.51,9.061
							c-1.913,0.805-3.827,1.594-5.744,2.368c6.635,26.5,13.244,55.522,19.826,87.651c6.729-32.042,13.428-67.253,20.098-106.315
							c-1.885,1.01-3.772,2.003-5.662,2.978c-3.052,1.552-5.458-0.605-5.457-4.84c0-4.238,2.406-8.644,5.457-10.473
							C1125.571,474.837,1133.593,469.675,1141.569,464.093z"/>
					</g>
					<g>
						<path fill="#2CCACA" d="M741.415,701.768c0-2.515,0.926-3.791,2.75-3.791c1.526,0,2.939,1.762,3.965,4.922
							c0.006,0.023,0.564,2.278,0.77,4.734c0.148,1.03,0.92,1.75,1.931,1.75c1.057,0,1.885-0.828,1.885-1.885v-11.301
							c0-1.075-0.81-1.885-1.885-1.885c-1.057,0-1.885,0.828-1.885,1.885v1.084c-1.18-2.273-3.02-3.491-5.354-3.491
							c-2.416,0-6.469,1.064-6.469,8.187c0,3.151,2.381,8.008,6.885,14.046c3.218,4.346,4.989,8.051,4.989,10.435
							c0,2.93-0.943,4.415-2.802,4.415c-2.394,0-4.149-3.206-4.944-9.034c-0.148-0.967-0.92-1.641-1.878-1.641h-0.365
							c-1.057,0-1.885,0.828-1.885,1.885v10.572c0,1.057,0.828,1.885,1.885,1.885h0.156c1.057,0,1.885-0.828,1.885-1.885v-0.747
							c1.083,2.06,3.061,3.153,5.823,3.153c2.396,0,6.416-1.071,6.416-8.238c0-2.543-1.104-7.089-6.362-14.304
							C743.373,707.665,741.415,703.847,741.415,701.768z"/>
						<path fill="#2CCACA" d="M773.641,698.03c1.075,0,1.885-0.788,1.885-1.833c0-1.057-0.828-1.885-1.885-1.885h-5.729
							c-1.075,0-1.885,0.788-1.885,1.833c0,1.057,0.851,1.885,1.938,1.885h0.718v32.791h-0.771c-1.075,0-1.885,0.788-1.885,1.833
							c0,1.075,0.632,1.885,1.469,1.885h6.146c1.057,0,1.885-0.737,1.885-1.677v-0.156c0-1.057-0.828-1.885-1.885-1.885h-0.771
							V698.03H773.641z"/>
						<path fill="#2CCACA" d="M808.532,694.312h-6.302c-1.075,0-1.886,0.788-1.886,1.833c0,1.057,0.851,1.885,1.938,1.885H803
							l0.001,15.482l0.318,7.919l-7.145-25.819c-0.233-0.778-0.939-1.301-1.757-1.301h-3.386c-1.074,0-1.885,0.788-1.885,1.833
							c0,1.057,0.828,1.885,1.885,1.885h0.823v32.791h-0.823c-1.074,0-1.885,0.788-1.885,1.833c0,1.057,0.828,1.885,1.885,1.885
							h5.781c1.075,0,1.886-0.788,1.886-1.833c0-1.057-0.828-1.885-1.886-1.885h-0.771l-0.001-15.221l-0.323-8.197l7.15,25.836
							c0.234,0.778,0.939,1.301,1.757,1.301h0.678c1.057,0,1.885-0.828,1.885-1.885V698.03h0.823c1.075,0,1.885-0.788,1.885-1.833
							C809.896,695.14,809.297,694.312,808.532,694.312z"/>
						<path fill="#2CCACA" d="M836.027,694.312c-0.826,0-1.473,0.45-1.733,1.173c-0.781-0.927-2.121-1.695-4.412-1.695
							c-4.608,0-7.145,2.648-7.145,7.458v26.354c0,4.809,2.686,7.458,7.562,7.458c4.977,0,7.718-2.648,7.718-7.458V721.3
							c0-1.057-0.828-1.885-1.885-1.885h-0.417c-1.057,0-1.885,0.851-1.885,1.937v6.563c0,2.308-1.188,3.479-3.531,3.479
							c-2.24,0-3.375-1.171-3.375-3.479v-26.041c0-2.896,1.17-4.364,3.479-4.364c2.274,0,3.427,1.468,3.427,4.364v5.625
							c0,1.057,0.828,1.885,1.885,1.885h0.417c1.057,0,1.885-0.828,1.885-1.885v-11.301
							C838.016,695.14,837.189,694.312,836.027,694.312z"/>
						<path fill="#2CCACA" d="M865.918,694.312h-12.5c-1.075,0-1.885,0.788-1.885,1.833c0,1.057,0.851,1.885,1.938,1.885h0.719
							v32.791h-0.771c-1.075,0-1.885,0.788-1.885,1.833c0,1.057,0.828,1.885,1.885,1.885h12.552c1.057,0,1.885-0.828,1.885-1.885
							V721.3c0-1.057-0.828-1.885-1.885-1.885h-0.417c-1.057,0-1.885,0.828-1.885,1.885v9.521h-5.291v-14.51h3.687
							c1.057,0,1.885-0.783,1.885-1.782c0-1.057-0.851-1.885-1.938-1.885h-3.635V698.03h5.291v9.469
							c0,1.057,0.828,1.885,1.885,1.885h0.417c1.057,0,1.885-0.828,1.885-1.885v-11.301
							C867.856,695.14,867.005,694.312,865.918,694.312z"/>
						<path fill="#2CCACA" d="M903.517,730.821h-1.813v-34.624c0-1.057-0.851-1.885-1.937-1.885h-0.833
							c-0.716,0-1.31,0.411-1.616,1.103c-0.273,0.549-0.838,1.267-1.945,1.565c-1.102,0.236-1.66,0.709-1.66,1.403
							c0,1.057,0.828,1.885,1.886,1.885h1.917v30.553h-1.865c-1.075,0-1.886,0.788-1.886,1.833c0,1.057,0.828,1.885,1.886,1.885
							h7.865c1.075,0,1.885-0.788,1.885-1.833C905.402,731.649,904.574,730.821,903.517,730.821z"/>
						<path fill="#2CCACA" d="M928.408,693.79c-5.044,0-7.822,2.723-7.822,7.666v11.615c0,4.767,2.633,7.614,7.041,7.614
							c1.765,0,3.204-0.459,4.365-1.398v8.471c0,2.379-1.223,3.584-3.636,3.584c-2.446,0-3.635-1.172-3.635-3.584v-2.969
							c0-1.057-0.851-1.885-1.938-1.885h-0.208c-1.057,0-1.885,0.851-1.885,1.938v2.552c0,5.016,2.614,7.666,7.562,7.666
							c5.038,0,7.927-2.794,7.927-7.666v-25.937C936.178,696.512,933.419,693.79,928.408,693.79z M931.992,701.092v12.291
							c0,2.413-1.205,3.636-3.584,3.636c-2.413,0-3.636-1.223-3.636-3.636v-12.291c0-2.377,1.223-3.583,3.636-3.583
							C930.819,697.509,931.992,698.681,931.992,701.092z"/>
						<path fill="#2CCACA" d="M963.849,712.414c1.948-1.034,3.002-2.973,3.002-5.592v-5.365c0-4.944-2.76-7.666-7.771-7.666
							c-5.011,0-7.77,2.723-7.77,7.666v5.365c0,2.651,1.047,4.592,2.983,5.605c-1.97,1.105-3.036,3.063-3.036,5.644v9.636
							c0,4.742,2.778,7.353,7.822,7.353c5.045,0,7.824-2.611,7.824-7.353v-9.636C966.903,715.477,965.83,713.515,963.849,712.414z
							 M962.714,707.134c0,2.306-1.189,3.427-3.635,3.427c-2.412,0-3.635-1.153-3.635-3.427v-6.198c0-2.274,1.223-3.427,3.635-3.427
							s3.635,1.153,3.635,3.427V707.134z M955.444,717.863c0-2.379,1.223-3.584,3.635-3.584c2.446,0,3.635,1.172,3.635,3.584v10.155
							c0,2.236-1.189,3.323-3.635,3.323c-2.446,0-3.635-1.087-3.635-3.323V717.863z"/>
						<path fill="#2CCACA" d="M989.909,693.79c-5.044,0-7.822,2.723-7.822,7.666v11.615c0,4.767,2.633,7.614,7.041,7.614
							c1.765,0,3.204-0.459,4.365-1.398v8.471c0,2.379-1.223,3.584-3.636,3.584c-2.446,0-3.635-1.172-3.635-3.584v-2.969
							c0-1.057-0.851-1.885-1.938-1.885h-0.208c-1.057,0-1.885,0.851-1.885,1.938v2.552c0,5.016,2.614,7.666,7.562,7.666
							c5.038,0,7.927-2.794,7.927-7.666v-25.937C997.679,696.512,994.92,693.79,989.909,693.79z M993.493,701.092v12.291
							c0,2.413-1.205,3.636-3.584,3.636c-2.413,0-3.636-1.223-3.636-3.636v-12.291c0-2.377,1.223-3.583,3.636-3.583
							C992.32,697.509,993.493,698.681,993.493,701.092z"/>
					</g>
				</g>
			</g>
		</g>
		<g>
			<g>
				<pattern  id="SVGID_1_" xlink:href="#Motivo_nuevo" patternTransform="matrix(1.0797 0 0 1.038 3348.7527 -802.5306)">
				</pattern>
				<rect x="0" y="0" fill="url(#SVGID_1_)" width="1700" height="1000"/>
				<pattern  id="SVGID_2_" xlink:href="#Motivo_nuevo_2" patternTransform="matrix(0 -1.0274 1.0908 0 4427.4146 -11899.083)">
				</pattern>
				<rect x="0" y="0" opacity="0.41" fill="url(#SVGID_2_)" width="1700" height="1000"/>
			</g>
		</g>
	</g>
</g>
<g id="Vexels">
	<g>
		<g>
			<path fill="#FFFFFF" d="M2527.897,335.484h-644.659c-10.94,0-19.81,8.87-19.81,19.81v268.082l-62.03,19.923l62.03,18.008v186.82
				c0,10.939,8.87,19.81,19.81,19.81h644.659c10.94,0,19.811-8.87,19.811-19.81V355.294
				C2547.708,344.354,2538.838,335.484,2527.897,335.484z"/>
			<rect x="1927.998" y="402.472" fill="none" width="583.032" height="407.034"/>
			<text transform="matrix(1 0 0 1 1927.998 419.5122)"><tspan x="0" y="0" fill="#333333" font-family="'MyriadPro-Regular'" font-size="24px">This design was made by vexels.com. Its under CC 3.0 </tspan><tspan x="0" y="28.8" fill="#333333" font-family="'MyriadPro-Regular'" font-size="24px">Attribution License. This means that for free use you must </tspan><tspan x="0" y="57.6" fill="#333333" font-family="'MyriadPro-Regular'" font-size="24px">give credit and cant do merchandise items. You can only </tspan><tspan x="0" y="86.4" fill="#333333" font-family="'MyriadPro-Regular'" font-size="24px">do commercial and merchandise items without credit if </tspan><tspan x="0" y="115.2" fill="#333333" font-family="'MyriadPro-Regular'" font-size="24px">you get a license. Learn more on </tspan><tspan x="327.785" y="115.2" fill="#C64B09" font-family="'MyriadPro-Regular'" font-size="24px">www.vexels.com/plans</tspan><tspan x="0" y="172.8" fill="#333333" font-family="'MyriadPro-Regular'" font-size="24px">You cant sublicense, redistribute or resell an image or </tspan><tspan x="0" y="201.6" fill="#333333" font-family="'MyriadPro-Regular'" font-size="24px">part of it. You can only use our contents for products </tspan><tspan x="0" y="230.4" fill="#333333" font-family="'MyriadPro-Regular'" font-size="24px">where the design is the main reason its being purchased </tspan><tspan x="0" y="259.2" fill="#333333" font-family="'MyriadPro-Regular'" font-size="24px">if you get a license. Learn more on </tspan><tspan x="0" y="288" fill="#C64B09" font-family="'MyriadPro-Regular'" font-size="24px">www.vexels.com/terms-and-conditions</tspan><tspan x="0" y="345.6" fill="#333333" font-family="'MyriadPro-Regular'" font-size="24px">Thanks!</tspan><tspan x="0" y="374.4" fill="#333333" font-family="'MyriadPro-Regular'" font-size="24px">Vexels Team</tspan></text>
		</g>
	</g>
	<g>
		<g>
			<path fill="#FFFFFF" d="M855.118,926.63l-0.97-2.099c-0.476-1.009-1.745-1.479-2.81-1.045c-1.154,0.395-1.669,1.586-1.193,2.56
				l1.09,2.362l8.619,18.701c0.081,0.074,0.159,0.217,0.196,0.289c0,0.035,0.045,0.035,0.045,0.035
				c0.039,0.072,0.119,0.144,0.198,0.219c0,0.071,0.037,0.071,0.037,0.105c0.117,0.074,0.198,0.11,0.276,0.182
				c0.039,0,0.039,0,0.039,0c0.121,0.072,0.28,0.18,0.359,0.215c0.039,0,0.039,0,0.039,0s0.041,0,0.041,0.039
				c0.078,0,0.237,0.035,0.318,0.068c0.035,0,0.078,0,0.078,0c0.119,0.037,0.278,0.037,0.4,0.037c0.117,0,0.237,0,0.396-0.037
				c0.036,0,0.075,0,0.075,0c0.119-0.033,0.197-0.068,0.319-0.068c0.041-0.039,0.041-0.039,0.078-0.039
				c0.12-0.035,0.241-0.143,0.319-0.182c0.078-0.033,0.078-0.033,0.078-0.033c0.08-0.073,0.157-0.108,0.235-0.182
				c0.042-0.034,0.042-0.034,0.081-0.105c0.041-0.074,0.157-0.147,0.196-0.219c0.039,0,0.039,0,0.039-0.035
				c0.082-0.072,0.125-0.215,0.164-0.289l0.369-0.794l-2.349-5.087L855.118,926.63z M939.183,926.481
				c0.672-0.903,0.517-2.129-0.473-2.744c-0.992-0.685-2.3-0.504-3.051,0.434l-4.518,5.633l2.69,3.29L939.183,926.481z
				 M872.456,923.487c-1.067-0.434-2.375,0.036-2.851,1.045l-5.741,12.403l2.356,5.092l7.427-15.98
				C874.082,925.073,873.569,923.882,872.456,923.487z M821.304,915.862c-0.932-0.932-2.172-1.444-3.489-1.444
				s-2.554,0.512-3.487,1.444l-15.965,15.968c-1.921,1.926-1.921,5.05,0,6.97l15.965,15.971c0.933,0.93,2.17,1.44,3.487,1.44
				s2.556-0.51,3.489-1.439l15.965-15.973c0.933-0.934,1.446-2.167,1.446-3.487c0-1.312-0.513-2.551-1.446-3.483L821.304,915.862z
				 M834.791,936.749l-15.542,15.54c-0.768,0.768-2.099,0.768-2.86,0l-15.544-15.54c-0.789-0.79-0.789-2.075-0.004-2.866
				l15.548-15.543c0.012-0.012,0.026-0.026,0.041-0.034v12.88c-0.633,0.215-1.217,0.553-1.702,1.04
				c-0.826,0.826-1.278,1.92-1.278,3.088s0.452,2.27,1.278,3.089c0.824,0.831,1.923,1.283,3.087,1.283
				c1.17,0,2.267-0.45,3.094-1.283c1.701-1.7,1.701-4.473,0-6.181c-0.486-0.486-1.07-0.821-1.704-1.036v-12.88
				c0.013,0.009,0.03,0.022,0.045,0.034l15.542,15.543c0.384,0.381,0.589,0.892,0.589,1.431
				C835.38,935.855,835.175,936.359,834.791,936.749z M931.658,935.783l-2.659-3.318l-6.692-8.294
				c-0.679-0.938-2.063-1.118-3.016-0.434c-0.99,0.615-1.188,1.84-0.516,2.744l7.53,9.302l-7.53,9.38
				c-0.672,0.863-0.474,2.128,0.516,2.74c0.357,0.252,0.795,0.396,1.268,0.396c0.675,0,1.307-0.326,1.748-0.83l6.692-8.331
				l7.15,8.946c0.413,0.514,1.066,0.78,1.672,0.78c0.454,0,0.982-0.209,1.363-0.511c0.899-0.716,0.967-2.009,0.25-2.905
				L931.658,935.783z M896.613,923.096c-6.409,0-11.625,5.667-11.625,12.629c0,6.907,5.217,12.534,11.625,12.534
				c3.935,0,7.564-2.148,9.701-5.748c0.516-0.931,0.257-2.087-0.652-2.777c-0.293-0.188-0.638-0.289-0.99-0.289
				c-0.686,0-1.295,0.367-1.625,0.968c-1.342,2.368-3.808,3.834-6.433,3.834c-3.887,0-7.111-3.092-7.69-7.28h17.294
				c1.083,0,1.926-0.84,1.926-1.913l-0.002-0.254C907.65,928.127,902.693,923.096,896.613,923.096z M889.205,933
				c1.051-3.548,3.959-5.891,7.407-5.891c3.38,0,6.301,2.395,7.285,5.891H889.205z M995.688,944.183c-0.041,0-2.979,0-3.022,0
				c-1.119,0-2.422-0.647-2.422-2.456v-20.084c0-1.181-0.964-2.139-2.15-2.139c-1.14,0-2.141,1.002-2.141,2.139v20.084
				c0,3.971,2.637,6.536,6.714,6.536c0.053,0,2.998,0,3.049-0.004c1.058-0.076,1.892-0.962,1.892-2.038
				C997.607,945.141,996.758,944.245,995.688,944.183z M1028.482,937.553c-0.911-1.338-2.339-2.275-3.964-2.993
				c-1.584-0.687-3.447-1.156-5.468-1.515h-0.081c-2.136-0.362-3.92-0.942-4.949-1.591c-0.516-0.32-0.876-0.645-1.074-0.936
				c-0.196-0.286-0.276-0.579-0.276-1.007c0-0.76,0.433-1.551,1.509-2.272c1.067-0.722,2.654-1.228,4.434-1.228
				c2.417,0,4.358,1.081,6.382,2.308c0.951,0.574,2.219,0.323,2.813-0.542c0.633-0.83,0.357-1.985-0.552-2.56
				c-2.023-1.19-4.84-2.889-8.643-2.889c-2.577,0-4.989,0.687-6.853,1.912c-1.824,1.233-3.173,3.103-3.173,5.27
				c0,1.079,0.317,2.09,0.915,2.953c0.869,1.264,2.178,2.168,3.679,2.813c1.509,0.649,3.256,1.083,5.113,1.408h0.084
				c2.335,0.396,4.28,1.008,5.429,1.694c0.591,0.363,0.948,0.721,1.188,1.084c0.238,0.362,0.355,0.682,0.355,1.152
				c0,0.903-0.512,1.805-1.706,2.599c-1.186,0.792-2.97,1.335-4.949,1.335c-2.816,0.034-5.827-1.481-7.569-2.777
				c-0.875-0.653-2.18-0.543-2.894,0.247c-0.674,0.795-0.556,1.987,0.317,2.636c2.261,1.626,5.864,3.574,10.147,3.607
				c2.812,0,5.388-0.756,7.331-2.052c1.98-1.303,3.405-3.283,3.405-5.594C1029.431,939.496,1029.077,938.417,1028.482,937.553z
				 M962.787,923.096c-6.408,0-11.623,5.667-11.623,12.629c0,6.907,5.215,12.534,11.623,12.534c3.941,0,7.561-2.148,9.704-5.748
				c0.514-0.931,0.255-2.087-0.65-2.777c-0.296-0.188-0.64-0.289-0.994-0.289c-0.684,0-1.292,0.367-1.624,0.968
				c-1.341,2.368-3.807,3.834-6.436,3.834c-3.888,0-7.111-3.092-7.688-7.28h17.296c1.078,0,1.925-0.84,1.925-1.913v-0.254
				C973.828,928.127,968.871,923.096,962.787,923.096z M955.382,933c1.049-3.548,3.959-5.891,7.406-5.891
				c3.387,0,6.303,2.395,7.287,5.891H955.382z"/>
		</g>
		<g>
			<path fill="#FFFFFF" d="M679.651,936.99c0,0.751,0.007,1.43,0.019,2.041c0.015,0.606,0.082,1.207,0.199,1.796h-1.19l-0.44-1.564
				h-0.089c-0.293,0.513-0.718,0.94-1.278,1.278c-0.558,0.337-1.21,0.506-1.962,0.506c-1.468,0-2.56-0.46-3.274-1.389
				c-0.712-0.925-1.068-2.372-1.068-4.343c0-1.879,0.445-3.307,1.335-4.284c0.887-0.977,2.111-1.464,3.668-1.464
				c0.543,0,0.973,0.028,1.29,0.085c0.315,0.059,0.657,0.154,1.024,0.288v-4.584h1.765V936.99z M675.198,939.506
				c0.749,0,1.344-0.197,1.786-0.587c0.438-0.389,0.74-0.98,0.901-1.774v-5.466c-0.265-0.204-0.564-0.353-0.901-0.441
				c-0.341-0.088-0.787-0.132-1.346-0.132c-1.014,0-1.807,0.335-2.38,1.005c-0.572,0.667-0.86,1.735-0.86,3.203
				c0,0.604,0.049,1.163,0.144,1.676c0.093,0.518,0.252,0.956,0.473,1.324c0.22,0.369,0.51,0.658,0.871,0.871
				C674.247,939.398,674.684,939.506,675.198,939.506z"/>
			<path fill="#FFFFFF" d="M691.09,939.9c-0.443,0.354-0.995,0.632-1.664,0.838c-0.67,0.205-1.378,0.308-2.127,0.308
				c-0.838,0-1.566-0.135-2.184-0.408c-0.615-0.271-1.124-0.66-1.52-1.168c-0.396-0.508-0.691-1.115-0.88-1.819
				c-0.193-0.704-0.289-1.495-0.289-2.378c0-1.881,0.421-3.316,1.259-4.301c0.836-0.982,2.033-1.477,3.592-1.477
				c0.499,0,0.997,0.057,1.498,0.169c0.501,0.108,0.948,0.319,1.344,0.628c0.397,0.308,0.721,0.746,0.971,1.31
				c0.249,0.567,0.374,1.312,0.374,2.237c0,0.486-0.044,1.024-0.133,1.609h-7.074c0,0.647,0.065,1.22,0.198,1.721
				c0.132,0.5,0.336,0.921,0.617,1.265c0.28,0.347,0.641,0.612,1.09,0.795c0.449,0.184,0.995,0.277,1.642,0.277
				c0.499,0,0.998-0.091,1.5-0.267c0.499-0.174,0.873-0.382,1.124-0.616L691.09,939.9z M687.299,931.041
				c-0.867,0-1.563,0.226-2.084,0.682c-0.523,0.456-0.834,1.234-0.936,2.338h5.465c0-1.118-0.213-1.901-0.64-2.349
				C688.679,931.263,688.078,931.041,687.299,931.041z"/>
			<path fill="#FFFFFF" d="M699.09,937.785c0-0.443-0.132-0.787-0.395-1.036c-0.267-0.25-0.594-0.458-0.983-0.628
				c-0.389-0.169-0.816-0.332-1.277-0.486c-0.464-0.152-0.89-0.352-1.279-0.594c-0.389-0.242-0.716-0.556-0.98-0.936
				c-0.264-0.384-0.397-0.899-0.397-1.546c0-1.057,0.3-1.83,0.903-2.324c0.602-0.493,1.44-0.741,2.514-0.741
				c0.793,0,1.459,0.073,1.994,0.213c0.536,0.139,1.003,0.304,1.4,0.497l-0.419,1.451c-0.339-0.159-0.747-0.303-1.223-0.426
				c-0.479-0.126-0.988-0.188-1.533-0.188c-0.647,0-1.12,0.109-1.42,0.33c-0.302,0.222-0.452,0.603-0.452,1.146
				c0,0.381,0.131,0.68,0.398,0.893c0.264,0.213,0.589,0.404,0.979,0.573c0.389,0.169,0.816,0.333,1.279,0.496
				c0.462,0.162,0.888,0.375,1.278,0.64c0.389,0.264,0.717,0.597,0.98,1.002c0.265,0.405,0.396,0.934,0.396,1.596
				c0,0.472-0.076,0.914-0.229,1.324c-0.156,0.413-0.394,0.765-0.718,1.058c-0.325,0.295-0.723,0.526-1.202,0.694
				c-0.478,0.168-1.038,0.254-1.685,0.254c-0.839,0-1.552-0.082-2.138-0.242c-0.589-0.163-1.081-0.352-1.478-0.573l0.528-1.5
				c0.339,0.191,0.779,0.367,1.324,0.53c0.543,0.161,1.094,0.243,1.652,0.243c0.632,0,1.155-0.127,1.564-0.377
				C698.884,938.878,699.09,938.432,699.09,937.785z"/>
			<path fill="#FFFFFF" d="M703.521,926.412c0-0.337,0.112-0.628,0.341-0.873c0.228-0.242,0.519-0.363,0.872-0.363
				c0.352,0,0.652,0.12,0.902,0.363c0.25,0.245,0.374,0.536,0.374,0.873c0,0.335-0.124,0.618-0.374,0.836
				c-0.25,0.222-0.55,0.332-0.902,0.332c-0.352,0-0.643-0.11-0.872-0.332C703.633,927.03,703.521,926.747,703.521,926.412z
				 M703.895,929.762h1.762v11.019h-1.762V929.762z"/>
			<path fill="#FFFFFF" d="M717.868,941.289c0,1.425-0.38,2.477-1.136,3.153c-0.756,0.675-1.876,1.012-3.36,1.012
				c-0.881,0-1.591-0.054-2.127-0.164c-0.535-0.11-0.995-0.254-1.379-0.431l0.465-1.499c0.338,0.134,0.712,0.259,1.124,0.376
				c0.411,0.119,0.948,0.176,1.609,0.176c0.617,0,1.119-0.056,1.509-0.165c0.389-0.109,0.703-0.295,0.936-0.552
				c0.235-0.256,0.397-0.588,0.486-0.992c0.088-0.404,0.132-0.886,0.132-1.444v-1.056h-0.088c-0.295,0.426-0.669,0.754-1.123,0.98
				c-0.457,0.228-1.051,0.343-1.787,0.343c-1.483,0-2.575-0.464-3.272-1.391c-0.699-0.925-1.048-2.365-1.048-4.321
				c0-1.879,0.449-3.307,1.344-4.284c0.897-0.977,2.219-1.464,3.967-1.464c0.838,0,1.555,0.065,2.15,0.197
				c0.596,0.132,1.127,0.287,1.598,0.462V941.289z M713.438,939.481c0.748,0,1.337-0.187,1.762-0.562
				c0.427-0.374,0.729-0.958,0.905-1.751v-5.643c-0.589-0.281-1.339-0.419-2.249-0.419c-0.999,0-1.785,0.34-2.358,1.014
				c-0.572,0.675-0.86,1.735-0.86,3.174c0,0.618,0.052,1.183,0.154,1.696c0.104,0.518,0.265,0.956,0.486,1.324
				c0.22,0.369,0.506,0.655,0.86,0.86C712.491,939.379,712.922,939.481,713.438,939.481z"/>
			<path fill="#FFFFFF" d="M728.337,940.781v-6.278c0-1.148-0.165-2.012-0.496-2.59c-0.33-0.582-0.937-0.872-1.817-0.872
				c-0.78,0-1.424,0.21-1.93,0.628c-0.506,0.417-0.864,0.944-1.07,1.576v7.536h-1.763v-11.019h1.234l0.33,1.344h0.089
				c0.354-0.471,0.826-0.858,1.422-1.158c0.595-0.299,1.305-0.453,2.126-0.453c0.604,0,1.133,0.073,1.586,0.213
				c0.457,0.139,0.834,0.384,1.137,0.736c0.3,0.352,0.528,0.827,0.682,1.422c0.156,0.596,0.232,1.349,0.232,2.26v6.655H728.337z"/>
			<path fill="#FFFFFF" d="M741.362,939.9c-0.44,0.354-0.994,0.632-1.663,0.838c-0.67,0.205-1.378,0.308-2.127,0.308
				c-0.837,0-1.566-0.135-2.182-0.408c-0.617-0.271-1.125-0.66-1.522-1.168c-0.396-0.508-0.691-1.115-0.88-1.819
				c-0.191-0.704-0.288-1.495-0.288-2.378c0-1.881,0.419-3.316,1.257-4.301c0.836-0.982,2.035-1.477,3.592-1.477
				c0.501,0,1,0.057,1.5,0.169c0.497,0.108,0.946,0.319,1.344,0.628c0.395,0.308,0.717,0.746,0.968,1.31
				c0.25,0.567,0.376,1.312,0.376,2.237c0,0.486-0.044,1.024-0.131,1.609h-7.076c0,0.647,0.067,1.22,0.198,1.721
				c0.132,0.5,0.338,0.921,0.617,1.265c0.28,0.347,0.641,0.612,1.09,0.795c0.449,0.184,0.995,0.277,1.642,0.277
				c0.501,0,1-0.091,1.501-0.267c0.498-0.174,0.872-0.382,1.123-0.616L741.362,939.9z M737.572,931.041
				c-0.867,0-1.561,0.226-2.083,0.682c-0.521,0.456-0.834,1.234-0.937,2.338h5.467c0-1.118-0.215-1.901-0.64-2.349
				C738.951,931.263,738.349,931.041,737.572,931.041z"/>
			<path fill="#FFFFFF" d="M752.979,936.99c0,0.751,0.005,1.43,0.02,2.041c0.017,0.606,0.081,1.207,0.198,1.796h-1.19l-0.44-1.564
				h-0.089c-0.295,0.513-0.721,0.94-1.278,1.278c-0.56,0.337-1.214,0.506-1.963,0.506c-1.468,0-2.56-0.46-3.274-1.389
				c-0.711-0.925-1.07-2.372-1.07-4.343c0-1.879,0.445-3.307,1.335-4.284c0.887-0.977,2.111-1.464,3.67-1.464
				c0.543,0,0.973,0.028,1.288,0.085c0.318,0.059,0.658,0.154,1.026,0.288v-4.584h1.765V936.99z M748.526,939.506
				c0.749,0,1.344-0.197,1.786-0.587c0.439-0.389,0.741-0.98,0.902-1.774v-5.466c-0.263-0.204-0.565-0.353-0.902-0.441
				c-0.337-0.088-0.787-0.132-1.346-0.132c-1.014,0-1.806,0.335-2.378,1.005c-0.573,0.667-0.861,1.735-0.861,3.203
				c0,0.604,0.047,1.163,0.143,1.676c0.095,0.518,0.254,0.956,0.473,1.324c0.222,0.369,0.511,0.658,0.873,0.871
				C747.575,939.398,748.011,939.506,748.526,939.506z"/>
			<path fill="#FFFFFF" d="M762.257,925.354h1.763v5.489h0.089c0.337-0.427,0.767-0.756,1.288-0.992
				c0.52-0.235,1.092-0.356,1.707-0.356c1.428,0,2.493,0.458,3.209,1.369c0.712,0.911,1.068,2.323,1.068,4.232
				c0,1.926-0.471,3.389-1.411,4.386c-0.94,1-2.263,1.498-3.966,1.498c-0.824,0-1.569-0.087-2.236-0.263
				c-0.669-0.176-1.173-0.367-1.511-0.573V925.354z M766.798,931.041c-0.736,0-1.332,0.203-1.786,0.615
				c-0.457,0.412-0.786,0.994-0.992,1.741v5.554c0.278,0.163,0.619,0.286,1.014,0.367c0.396,0.08,0.808,0.12,1.234,0.12
				c0.998,0,1.797-0.356,2.391-1.06c0.594-0.705,0.89-1.806,0.89-3.304c0-0.572-0.05-1.11-0.152-1.611
				c-0.104-0.5-0.265-0.925-0.486-1.278c-0.22-0.353-0.503-0.633-0.847-0.834C767.719,931.145,767.296,931.041,766.798,931.041z"/>
			<path fill="#FFFFFF" d="M777.145,936.903l0.619,2.115h0.111l0.487-2.135l2.146-7.121h1.762l-3.262,9.895
				c-0.25,0.719-0.495,1.418-0.738,2.095c-0.243,0.675-0.512,1.278-0.804,1.808c-0.296,0.53-0.627,0.951-0.992,1.268
				c-0.369,0.315-0.794,0.472-1.279,0.472c-0.528,0-0.962-0.074-1.3-0.219l0.308-1.522c0.191,0.074,0.374,0.109,0.552,0.109
				c0.412,0,0.807-0.217,1.19-0.649c0.381-0.433,0.697-1.179,0.948-2.239l-4.431-11.019h2.027L777.145,936.903z"/>
		</g>
	</g>
</g>
</svg>
